<?xml version="1.0" encoding="UTF-8" standalone="no"?>
<!-- Created with Inkscape (http://www.inkscape.org/) -->
<svg
   xmlns:dc="http://purl.org/dc/elements/1.1/"
   xmlns:cc="http://creativecommons.org/ns#"
   xmlns:rdf="http://www.w3.org/1999/02/22-rdf-syntax-ns#"
   xmlns:svg="http://www.w3.org/2000/svg"
   xmlns="http://www.w3.org/2000/svg"
   xmlns:sodipodi="http://sodipodi.sourceforge.net/DTD/sodipodi-0.dtd"
   xmlns:inkscape="http://www.inkscape.org/namespaces/inkscape"
   version="1.0"
   width="560"
   height="390"
   id="Karte"
   sodipodi:version="0.32"
   inkscape:version="0.46"
   sodipodi:docname="Wahlkreise_Abgeordnetenhaus_Berlin.svg"
   inkscape:output_extension="org.inkscape.output.svg.inkscape">
  <metadata
     id="metadata251">
    <rdf:RDF>
      <cc:Work
         rdf:about="">
        <dc:format>image/svg+xml</dc:format>
        <dc:type
           rdf:resource="http://purl.org/dc/dcmitype/StillImage" />
      </cc:Work>
    </rdf:RDF>
  </metadata>
  <sodipodi:namedview
     inkscape:window-height="708"
     inkscape:window-width="1024"
     inkscape:pageshadow="2"
     inkscape:pageopacity="0.0"
     guidetolerance="10.0"
     gridtolerance="10.0"
     objecttolerance="10.0"
     borderopacity="1.0"
     bordercolor="#666666"
     pagecolor="#ffffff"
     id="base"
     showgrid="false"
     inkscape:zoom="1"
     inkscape:cx="169.54601"
     inkscape:cy="211.43456"
     inkscape:window-x="-4"
     inkscape:window-y="-4"
     inkscape:current-layer="Karte" />
  <defs
     id="defs8531">
    <inkscape:perspective
       sodipodi:type="inkscape:persp3d"
       inkscape:vp_x="0 : 195 : 1"
       inkscape:vp_y="0 : 1000 : 0"
       inkscape:vp_z="560 : 195 : 1"
       inkscape:persp3d-origin="280 : 130 : 1"
       id="perspective253" />
  </defs>
  <g
     style="fill:none;stroke:#e00000;stroke-width:8;stroke-linejoin:round;stroke-opacity:1;stroke-miterlimit:4;stroke-dasharray:none"
     id="Bezirksgrenze"
     transform="matrix(0.1,0,0,0.1,-15.85,-5.2)">
    <path cartogramvalue="3"
       id="Mitte"
       d="M 2317,1987 L 2317,1987 L 2308,2013 L 2307,2014 L 2299,2038 L 2297,2039 L 2295,2038 L 2293,2036 L 2291,2032 L 2289,2029 L 2288,2031 L 2285,2040 L 2276,2056 L 2274,2058 L 2270,2077 L 2262,2088 L 2260,2090 L 2257,2089 L 2240,2086 L 2238,2085 L 2229,2083 L 2227,2083 L 2218,2081 L 2214,2079 L 2200,2073 L 2197,2071 L 2186,2066 L 2183,2064 L 2181,2064 L 2166,2058 L 2166,2057 L 2154,2053 L 2153,2053 L 2150,2051 L 2145,2049 L 2144,2050 L 2130,2044 L 2124,2041 L 2116,2038 L 2103,2032 L 2100,2031 L 2092,2028 L 2090,2027 L 2082,2024 L 2079,2023 L 2072,2020 L 2071,2020 L 2067,2019 L 2065,2018 L 2062,2018 L 2061,2017 L 2059,2017 L 2057,2018 L 2055,2018 L 2054,2014 L 2052,2009 L 2042,2011 L 2039,2011 L 2033,2010 L 2032,2010 L 2031,2009 L 2021,2002 L 2021,2001 L 2019,2000 L 2027,1984 L 2027,1980 L 2026,1979 L 2026,1978 L 2025,1977 L 2025,1976 L 2024,1976 L 2021,1975 L 2020,1976 L 2016,1974 L 1994,1962 L 2011,1953 L 2015,1951 L 2017,1949 L 2019,1948 L 2021,1944 L 2020,1943 L 2020,1944 L 2004,1938 L 2003,1938 L 2001,1937 L 1999,1935 L 1998,1933 L 1998,1932 L 2001,1932 L 2003,1931 L 2004,1932 L 2005,1932 L 2005,1931 L 2009,1929 L 2010,1929 L 2034,1927 L 2035,1921 L 2036,1919 L 2034,1920 L 2036,1914 L 2034,1913 L 2030,1909 L 2030,1907 L 2027,1902 L 2023,1888 L 2021,1889 L 2010,1889 L 2007,1888 L 2003,1886 L 2000,1884 L 1994,1878 L 1993,1876 L 1991,1874 L 1990,1872 L 1988,1866 L 1988,1860 L 1989,1857 L 1991,1847 L 1991,1837 L 1990,1835 L 1990,1833 L 1988,1829 L 1987,1828 L 1987,1826 L 1985,1824 L 1973,1810 L 1969,1806 L 1967,1805 L 1964,1804 L 1962,1803 L 1961,1802 L 1958,1801 L 1956,1800 L 1941,1800 L 1939,1801 L 1937,1801 L 1934,1802 L 1933,1803 L 1927,1806 L 1925,1808 L 1924,1810 L 1922,1812 L 1919,1818 L 1919,1820 L 1918,1825 L 1918,1839 L 1914,1845 L 1911,1848 L 1904,1842 L 1904,1841 L 1895,1802 L 1893,1791 L 1893,1789 L 1892,1785 L 1882,1740 L 1882,1738 L 1883,1737 L 1886,1736 L 1887,1736 L 1890,1734 L 1905,1730 L 1904,1727 L 1905,1727 L 1906,1726 L 1908,1723 L 1907,1718 L 1910,1714 L 1907,1714 L 1886,1718 L 1884,1719 L 1883,1718 L 1881,1719 L 1880,1719 L 1879,1716 L 1878,1714 L 1876,1711 L 1871,1689 L 1869,1678 L 1969,1655 L 1972,1655 L 1975,1654 L 1983,1652 L 1986,1652 L 1988,1650 L 1989,1650 L 1985,1645 L 1982,1640 L 1976,1633 L 1976,1622 L 1977,1620 L 1977,1613 L 1972,1610 L 1967,1605 L 1965,1602 L 1962,1599 L 1952,1586 L 1947,1578 L 1943,1574 L 1930,1558 L 1924,1550 L 1922,1546 L 1918,1543 L 1914,1538 L 1895,1536 L 1879,1536 L 1868,1535 L 1862,1534 L 1836,1532 L 1802,1530 L 1812,1513 L 1816,1504 L 1827,1485 L 1828,1483 L 1841,1461 L 1858,1432 L 1859,1431 L 1872,1425 L 1886,1420 L 1912,1410 L 1918,1408 L 1938,1404 L 1940,1403 L 1956,1400 L 1957,1399 L 1959,1399 L 1960,1398 L 1962,1398 L 1963,1397 L 1965,1396 L 1966,1395 L 1968,1394 L 1969,1393 L 1970,1391 L 1972,1389 L 1974,1380 L 2002,1383 L 2008,1388 L 2011,1386 L 2044,1358 L 2060,1363 L 2061,1363 L 2082,1370 L 2085,1372 L 2111,1380 L 2123,1384 L 2123,1385 L 2126,1386 L 2161,1386 L 2170,1385 L 2175,1385 L 2180,1386 L 2198,1387 L 2199,1388 L 2200,1401 L 2200,1403 L 2202,1402 L 2230,1395 L 2232,1415 L 2234,1429 L 2237,1429 L 2244,1428 L 2261,1414 L 2264,1411 L 2267,1409 L 2273,1402 L 2276,1402 L 2314,1401 L 2316,1401 L 2316,1398 L 2321,1369 L 2321,1367 L 2323,1357 L 2323,1355 L 2325,1342 L 2326,1340 L 2343,1337 L 2344,1336 L 2364,1323 L 2367,1322 L 2389,1327 L 2393,1323 L 2393,1324 L 2394,1323 L 2397,1326 L 2397,1327 L 2395,1329 L 2396,1330 L 2396,1331 L 2399,1334 L 2408,1342 L 2408,1344 L 2410,1346 L 2410,1345 L 2412,1346 L 2425,1358 L 2426,1359 L 2426,1360 L 2432,1369 L 2435,1373 L 2443,1389 L 2446,1398 L 2447,1405 L 2448,1410 L 2448,1411 L 2450,1422 L 2450,1427 L 2451,1428 L 2451,1432 L 2452,1449 L 2452,1452 L 2454,1465 L 2454,1469 L 2455,1470 L 2455,1476 L 2456,1479 L 2457,1483 L 2457,1486 L 2458,1488 L 2458,1492 L 2456,1500 L 2454,1504 L 2453,1507 L 2452,1508 L 2451,1510 L 2449,1512 L 2451,1512 L 2463,1510 L 2465,1526 L 2465,1530 L 2471,1550 L 2472,1557 L 2473,1560 L 2476,1570 L 2479,1579 L 2486,1604 L 2490,1615 L 2493,1626 L 2494,1629 L 2499,1627 L 2502,1629 L 2505,1639 L 2507,1648 L 2509,1656 L 2510,1656 L 2511,1659 L 2512,1661 L 2511,1661 L 2514,1671 L 2515,1670 L 2516,1674 L 2517,1679 L 2521,1690 L 2525,1693 L 2527,1694 L 2526,1696 L 2522,1702 L 2519,1708 L 2513,1716 L 2513,1720 L 2511,1730 L 2511,1732 L 2510,1734 L 2511,1736 L 2510,1739 L 2508,1746 L 2519,1749 L 2520,1750 L 2525,1751 L 2527,1752 L 2534,1755 L 2538,1756 L 2541,1757 L 2547,1758 L 2553,1761 L 2566,1767 L 2574,1771 L 2580,1776 L 2581,1776 L 2583,1778 L 2584,1778 L 2584,1779 L 2591,1784 L 2594,1785 L 2602,1791 L 2603,1792 L 2609,1796 L 2610,1797 L 2617,1801 L 2621,1803 L 2622,1805 L 2628,1808 L 2631,1810 L 2632,1811 L 2644,1817 L 2646,1817 L 2649,1818 L 2649,1820 L 2650,1822 L 2646,1822 L 2646,1823 L 2643,1823 L 2657,1833 L 2658,1834 L 2663,1838 L 2667,1841 L 2668,1841 L 2666,1847 L 2663,1857 L 2663,1859 L 2656,1859 L 2655,1858 L 2652,1857 L 2652,1858 L 2650,1863 L 2647,1868 L 2645,1872 L 2646,1872 L 2648,1873 L 2647,1875 L 2647,1876 L 2650,1876 L 2651,1877 L 2648,1884 L 2645,1894 L 2645,1895 L 2643,1898 L 2643,1900 L 2638,1913 L 2632,1925 L 2632,1926 L 2631,1928 L 2628,1933 L 2628,1934 L 2627,1935 L 2624,1940 L 2625,1942 L 2626,1942 L 2627,1943 L 2627,1944 L 2628,1944 L 2636,1950 L 2637,1952 L 2645,1960 L 2653,1967 L 2662,1976 L 2662,1979 L 2665,1977 L 2667,1978 L 2667,1980 L 2668,1981 L 2666,1987 L 2664,1988 L 2661,1997 L 2653,2014 L 2650,2012 L 2646,2016 L 2642,2018 L 2640,2018 L 2638,2019 L 2637,2019 L 2635,2020 L 2632,2020 L 2629,2021 L 2619,2021 L 2617,2020 L 2615,2020 L 2601,2014 L 2598,2019 L 2597,2020 L 2595,2021 L 2592,2021 L 2588,2030 L 2586,2029 L 2585,2029 L 2582,2027 L 2570,2022 L 2568,2023 L 2568,2025 L 2565,2030 L 2564,2032 L 2560,2029 L 2549,2023 L 2547,2022 L 2546,2020 L 2537,2000 L 2525,2007 L 2523,2008 L 2522,2006 L 2505,1985 L 2500,1988 L 2499,1990 L 2499,1989 L 2495,1987 L 2488,1981 L 2483,1979 L 2479,1976 L 2470,1971 L 2464,1986 L 2461,1986 L 2431,1989 L 2429,1989 L 2418,1990 L 2416,1990 L 2405,1991 L 2403,1992 L 2372,1994 L 2370,1994 L 2332,1998 L 2326,1998 L 2318,1988 L 2317,1987 z"
       style="stroke:#e00000;stroke-opacity:1;stroke-width:8;stroke-miterlimit:4;stroke-dasharray:none;fill:#ff9955" />
    <path cartogramvalue="3"
       id="Friedrichshain-Kreuzberg"
       d="M 2810,2115 L 2810,2115 L 2808,2117 L 2793,2135 L 2793,2136 L 2792,2136 L 2791,2137 L 2785,2137 L 2784,2136 L 2779,2136 L 2778,2137 L 2777,2137 L 2776,2138 L 2775,2138 L 2775,2139 L 2771,2143 L 2757,2161 L 2745,2176 L 2743,2177 L 2742,2178 L 2738,2184 L 2738,2189 L 2737,2192 L 2735,2192 L 2728,2184 L 2709,2174 L 2708,2173 L 2679,2158 L 2662,2149 L 2660,2148 L 2621,2127 L 2616,2125 L 2612,2123 L 2607,2122 L 2610,2127 L 2615,2141 L 2616,2143 L 2620,2154 L 2621,2156 L 2623,2163 L 2624,2165 L 2628,2175 L 2628,2177 L 2632,2185 L 2633,2188 L 2633,2190 L 2640,2207 L 2641,2209 L 2638,2213 L 2631,2225 L 2631,2229 L 2625,2226 L 2612,2220 L 2610,2219 L 2594,2216 L 2573,2211 L 2564,2209 L 2561,2209 L 2559,2208 L 2522,2200 L 2521,2202 L 2521,2204 L 2523,2206 L 2526,2219 L 2519,2231 L 2516,2232 L 2498,2243 L 2479,2243 L 2471,2256 L 2471,2257 L 2429,2256 L 2429,2235 L 2375,2234 L 2375,2244 L 2307,2244 L 2294,2243 L 2275,2243 L 2275,2241 L 2292,2241 L 2293,2213 L 2289,2212 L 2289,2210 L 2297,2194 L 2301,2193 L 2302,2182 L 2308,2171 L 2309,2169 L 2308,2168 L 2305,2168 L 2304,2167 L 2302,2167 L 2299,2165 L 2296,2164 L 2294,2164 L 2291,2163 L 2286,2161 L 2284,2161 L 2283,2160 L 2281,2159 L 2278,2159 L 2275,2157 L 2274,2157 L 2272,2156 L 2272,2155 L 2260,2150 L 2259,2152 L 2257,2151 L 2253,2150 L 2254,2148 L 2255,2143 L 2254,2137 L 2255,2115 L 2256,2105 L 2262,2097 L 2263,2090 L 2262,2088 L 2270,2077 L 2274,2058 L 2276,2056 L 2285,2040 L 2288,2031 L 2289,2029 L 2291,2032 L 2293,2036 L 2295,2038 L 2297,2039 L 2299,2038 L 2307,2014 L 2308,2013 L 2317,1987 L 2318,1988 L 2326,1998 L 2332,1998 L 2370,1994 L 2372,1994 L 2403,1992 L 2405,1991 L 2416,1990 L 2418,1990 L 2429,1989 L 2431,1989 L 2461,1986 L 2464,1986 L 2470,1971 L 2479,1976 L 2483,1979 L 2488,1981 L 2495,1987 L 2499,1989 L 2499,1990 L 2500,1988 L 2505,1985 L 2522,2006 L 2523,2008 L 2525,2007 L 2537,2000 L 2546,2020 L 2547,2022 L 2549,2023 L 2560,2029 L 2564,2032 L 2565,2030 L 2568,2025 L 2568,2023 L 2570,2022 L 2582,2027 L 2585,2029 L 2586,2029 L 2588,2030 L 2592,2021 L 2595,2021 L 2597,2020 L 2598,2019 L 2601,2014 L 2615,2020 L 2617,2020 L 2619,2021 L 2629,2021 L 2632,2020 L 2635,2020 L 2637,2019 L 2638,2019 L 2640,2018 L 2642,2018 L 2646,2016 L 2650,2012 L 2653,2014 L 2661,1997 L 2664,1988 L 2666,1987 L 2668,1981 L 2667,1980 L 2667,1978 L 2665,1977 L 2662,1979 L 2662,1976 L 2653,1967 L 2645,1960 L 2637,1952 L 2636,1950 L 2628,1944 L 2627,1944 L 2627,1943 L 2626,1942 L 2625,1942 L 2624,1940 L 2627,1935 L 2628,1934 L 2628,1933 L 2631,1928 L 2632,1926 L 2632,1925 L 2638,1913 L 2643,1900 L 2643,1898 L 2645,1895 L 2645,1894 L 2648,1884 L 2651,1877 L 2650,1876 L 2647,1876 L 2647,1875 L 2648,1873 L 2646,1872 L 2645,1872 L 2647,1868 L 2650,1863 L 2652,1858 L 2652,1857 L 2655,1858 L 2656,1859 L 2663,1859 L 2663,1857 L 2666,1847 L 2668,1841 L 2667,1841 L 2663,1838 L 2658,1834 L 2657,1833 L 2643,1823 L 2646,1823 L 2646,1822 L 2650,1822 L 2649,1820 L 2649,1818 L 2646,1817 L 2644,1817 L 2632,1811 L 2631,1810 L 2628,1808 L 2622,1805 L 2621,1803 L 2617,1801 L 2610,1797 L 2609,1796 L 2618,1783 L 2619,1782 L 2623,1777 L 2631,1766 L 2632,1766 L 2633,1765 L 2636,1766 L 2637,1766 L 2638,1767 L 2640,1764 L 2642,1764 L 2657,1761 L 2664,1760 L 2666,1759 L 2676,1758 L 2677,1757 L 2719,1749 L 2724,1748 L 2730,1757 L 2733,1757 L 2756,1732 L 2779,1767 L 2780,1769 L 2785,1777 L 2790,1783 L 2795,1781 L 2796,1780 L 2814,1771 L 2822,1769 L 2824,1768 L 2824,1769 L 2825,1770 L 2825,1771 L 2831,1784 L 2832,1786 L 2837,1799 L 2843,1815 L 2848,1826 L 2850,1830 L 2845,1841 L 2868,1847 L 2870,1848 L 2894,1856 L 2896,1856 L 2923,1852 L 2926,1851 L 2940,1850 L 2942,1849 L 2949,1848 L 2953,1848 L 2959,1847 L 2960,1847 L 2960,1849 L 2962,1849 L 2966,1856 L 2965,1857 L 2970,1865 L 2973,1865 L 2973,1866 L 2976,1874 L 2978,1879 L 2979,1882 L 2982,1890 L 2985,1897 L 2985,1898 L 2986,1900 L 2988,1907 L 2988,1908 L 2991,1911 L 2992,1911 L 2997,1914 L 2995,1918 L 2984,1912 L 2982,1924 L 2981,1928 L 2982,1932 L 2984,1939 L 2984,1942 L 2985,1943 L 2984,1944 L 2987,1961 L 2985,1963 L 2984,1963 L 2983,1966 L 2981,1970 L 2971,1988 L 2972,1988 L 2971,1989 L 2970,1989 L 2965,1998 L 2967,2001 L 2965,2002 L 2963,2004 L 2963,2006 L 2959,2010 L 2957,2013 L 2956,2014 L 2954,2017 L 2953,2018 L 2952,2020 L 2953,2022 L 2952,2023 L 2947,2032 L 2943,2048 L 2943,2049 L 2942,2050 L 2942,2052 L 2941,2056 L 2937,2071 L 2936,2076 L 2935,2076 L 2934,2081 L 2940,2083 L 2938,2085 L 2938,2088 L 2939,2088 L 2941,2090 L 2943,2093 L 2953,2100 L 2953,2099 L 2959,2104 L 2965,2108 L 2972,2111 L 2976,2113 L 2978,2115 L 2982,2118 L 2983,2119 L 2984,2122 L 2981,2126 L 2980,2128 L 2982,2135 L 2985,2139 L 2987,2142 L 2988,2142 L 3008,2154 L 3009,2155 L 3014,2164 L 3013,2164 L 3016,2169 L 3023,2175 L 3026,2176 L 3037,2167 L 3040,2170 L 3040,2171 L 3046,2171 L 3051,2176 L 3053,2180 L 3069,2190 L 3072,2198 L 3090,2209 L 3085,2218 L 3084,2217 L 3083,2217 L 3074,2214 L 3069,2213 L 3057,2215 L 3052,2218 L 3043,2224 L 3040,2227 L 3032,2233 L 3026,2219 L 3026,2218 L 3023,2215 L 3014,2212 L 3008,2212 L 3006,2213 L 3005,2215 L 3002,2222 L 2999,2215 L 2998,2213 L 2998,2212 L 2997,2210 L 2996,2203 L 2992,2197 L 2986,2190 L 2981,2186 L 2969,2177 L 2951,2172 L 2934,2163 L 2923,2159 L 2905,2147 L 2898,2142 L 2897,2138 L 2898,2137 L 2900,2134 L 2901,2132 L 2901,2131 L 2898,2129 L 2895,2129 L 2891,2127 L 2889,2127 L 2875,2118 L 2872,2116 L 2845,2108 L 2836,2105 L 2827,2105 L 2824,2106 L 2822,2106 L 2819,2107 L 2816,2109 L 2810,2115 z"
       style="fill:#ff7f2a;stroke:#e00000;stroke-opacity:1;stroke-width:8;stroke-miterlimit:4;stroke-dasharray:none" />
    <path cartogramvalue="3"
       id="Pankow"
       d="M 2250,680 L 2250,680 L 2251,681 L 2252,684 L 2256,695 L 2266,715 L 2268,718 L 2268,719 L 2279,741 L 2287,759 L 2290,768 L 2291,770 L 2291,772 L 2298,788 L 2299,789 L 2305,806 L 2308,814 L 2310,828 L 2312,844 L 2312,859 L 2311,877 L 2308,885 L 2309,885 L 2306,890 L 2302,899 L 2290,929 L 2288,933 L 2287,936 L 2277,961 L 2276,961 L 2276,963 L 2273,969 L 2271,971 L 2270,973 L 2268,976 L 2261,985 L 2257,991 L 2256,992 L 2255,992 L 2254,994 L 2239,1013 L 2230,1026 L 2230,1027 L 2220,1040 L 2205,1060 L 2201,1061 L 2195,1062 L 2189,1062 L 2172,1064 L 2158,1064 L 2145,1065 L 2142,1065 L 2134,1067 L 2124,1070 L 2116,1073 L 2123,1079 L 2127,1083 L 2133,1083 L 2131,1086 L 2142,1096 L 2148,1100 L 2147,1101 L 2158,1110 L 2186,1136 L 2188,1137 L 2189,1137 L 2193,1139 L 2196,1142 L 2196,1143 L 2206,1153 L 2212,1158 L 2221,1167 L 2224,1169 L 2227,1172 L 2228,1169 L 2230,1171 L 2231,1173 L 2233,1176 L 2234,1176 L 2237,1178 L 2240,1181 L 2243,1185 L 2250,1191 L 2250,1192 L 2256,1196 L 2255,1197 L 2267,1208 L 2276,1216 L 2283,1221 L 2284,1220 L 2294,1227 L 2299,1231 L 2302,1234 L 2306,1237 L 2311,1242 L 2311,1243 L 2312,1244 L 2316,1249 L 2323,1257 L 2324,1256 L 2325,1256 L 2326,1259 L 2328,1258 L 2329,1263 L 2330,1262 L 2331,1265 L 2332,1267 L 2333,1266 L 2333,1269 L 2335,1269 L 2337,1270 L 2342,1272 L 2350,1274 L 2353,1274 L 2356,1271 L 2391,1303 L 2388,1307 L 2398,1317 L 2394,1321 L 2393,1323 L 2393,1324 L 2394,1323 L 2397,1326 L 2397,1327 L 2395,1329 L 2396,1330 L 2396,1331 L 2399,1334 L 2408,1342 L 2408,1344 L 2410,1346 L 2410,1345 L 2412,1346 L 2425,1358 L 2426,1359 L 2426,1360 L 2432,1369 L 2435,1373 L 2443,1389 L 2446,1398 L 2447,1405 L 2448,1410 L 2448,1411 L 2450,1422 L 2450,1427 L 2451,1428 L 2451,1432 L 2452,1449 L 2452,1452 L 2454,1465 L 2454,1469 L 2455,1470 L 2455,1476 L 2456,1479 L 2457,1483 L 2457,1486 L 2458,1488 L 2458,1492 L 2456,1500 L 2454,1504 L 2453,1507 L 2452,1508 L 2451,1510 L 2449,1512 L 2451,1512 L 2463,1510 L 2465,1526 L 2465,1530 L 2471,1550 L 2472,1557 L 2473,1560 L 2476,1570 L 2479,1579 L 2486,1604 L 2490,1615 L 2493,1626 L 2494,1629 L 2499,1627 L 2502,1629 L 2505,1639 L 2507,1648 L 2509,1656 L 2510,1656 L 2511,1659 L 2512,1661 L 2511,1661 L 2514,1671 L 2515,1670 L 2516,1674 L 2517,1679 L 2521,1690 L 2525,1693 L 2527,1694 L 2526,1696 L 2522,1702 L 2519,1708 L 2513,1716 L 2513,1720 L 2511,1730 L 2511,1732 L 2510,1734 L 2511,1736 L 2510,1739 L 2508,1746 L 2519,1749 L 2520,1750 L 2525,1751 L 2527,1752 L 2534,1755 L 2538,1756 L 2541,1757 L 2547,1758 L 2553,1761 L 2566,1767 L 2574,1771 L 2580,1776 L 2581,1776 L 2583,1778 L 2584,1778 L 2584,1779 L 2591,1784 L 2594,1785 L 2602,1791 L 2603,1792 L 2609,1796 L 2618,1783 L 2619,1782 L 2623,1777 L 2631,1766 L 2632,1766 L 2633,1765 L 2636,1766 L 2637,1766 L 2638,1767 L 2640,1764 L 2642,1764 L 2657,1761 L 2664,1760 L 2666,1759 L 2676,1758 L 2677,1757 L 2719,1749 L 2724,1748 L 2730,1757 L 2733,1757 L 2756,1732 L 2779,1767 L 2780,1769 L 2785,1777 L 2790,1783 L 2795,1781 L 2796,1780 L 2814,1771 L 2822,1769 L 2824,1768 L 2824,1769 L 2825,1770 L 2825,1771 L 2831,1784 L 2832,1786 L 2837,1799 L 2843,1815 L 2848,1826 L 2850,1830 L 2845,1841 L 2868,1847 L 2870,1848 L 2894,1856 L 2896,1856 L 2923,1852 L 2926,1851 L 2940,1850 L 2942,1849 L 2949,1848 L 2953,1848 L 2959,1847 L 2954,1840 L 2951,1834 L 2949,1832 L 2947,1829 L 2945,1827 L 2944,1825 L 2938,1821 L 2935,1818 L 2932,1816 L 2928,1814 L 2925,1812 L 2913,1809 L 2898,1806 L 2890,1802 L 2885,1799 L 2882,1798 L 2876,1794 L 2872,1792 L 2864,1784 L 2852,1765 L 2851,1763 L 2853,1761 L 2855,1761 L 2865,1757 L 2877,1753 L 2881,1752 L 2883,1748 L 2883,1747 L 2884,1746 L 2886,1742 L 2892,1731 L 2899,1717 L 2900,1717 L 2900,1714 L 2907,1710 L 2907,1709 L 2908,1709 L 2908,1708 L 2919,1702 L 2922,1700 L 2924,1699 L 2925,1699 L 2925,1698 L 2926,1698 L 2926,1699 L 2936,1691 L 2937,1691 L 2932,1679 L 2930,1675 L 2924,1671 L 2920,1669 L 2923,1663 L 2924,1662 L 2929,1650 L 2928,1649 L 2928,1650 L 2926,1649 L 2944,1627 L 2941,1614 L 2940,1608 L 2939,1608 L 2937,1595 L 2929,1559 L 2928,1557 L 2925,1543 L 2926,1541 L 2927,1541 L 2928,1540 L 2935,1541 L 2939,1543 L 2942,1546 L 2950,1546 L 2955,1547 L 2977,1547 L 3000,1548 L 3007,1549 L 3010,1549 L 3016,1543 L 3014,1538 L 3011,1533 L 3011,1531 L 3009,1529 L 3011,1525 L 3014,1527 L 3015,1526 L 3016,1526 L 3016,1527 L 3026,1527 L 3026,1526 L 3027,1526 L 3028,1525 L 3029,1525 L 3038,1514 L 3038,1513 L 3039,1512 L 3052,1497 L 3054,1494 L 3060,1496 L 3082,1502 L 3083,1503 L 3085,1503 L 3108,1511 L 3111,1513 L 3117,1490 L 3118,1488 L 3118,1486 L 3119,1485 L 3119,1479 L 3120,1478 L 3120,1476 L 3119,1474 L 3119,1468 L 3118,1466 L 3118,1464 L 3117,1462 L 3117,1461 L 3116,1459 L 3116,1457 L 3115,1455 L 3114,1454 L 3111,1448 L 3105,1439 L 3098,1426 L 3096,1423 L 3094,1418 L 3092,1415 L 3091,1414 L 3090,1412 L 3087,1409 L 3085,1408 L 3082,1406 L 3080,1404 L 3068,1398 L 3056,1394 L 3053,1394 L 3050,1393 L 3048,1390 L 3049,1385 L 3051,1383 L 3053,1372 L 3053,1371 L 3055,1364 L 3053,1364 L 3038,1361 L 3038,1360 L 3041,1351 L 3041,1344 L 3042,1343 L 3038,1342 L 3039,1341 L 3055,1319 L 3065,1308 L 3053,1298 L 3040,1287 L 3033,1282 L 3034,1281 L 3033,1272 L 3032,1271 L 3032,1270 L 3031,1270 L 3029,1271 L 3026,1271 L 3024,1270 L 3014,1270 L 3012,1269 L 3010,1269 L 3010,1262 L 3012,1262 L 3013,1260 L 3011,1259 L 3011,1254 L 3012,1251 L 3012,1249 L 3013,1247 L 3014,1243 L 3014,1242 L 3012,1241 L 3012,1238 L 3013,1239 L 3013,1213 L 3017,1213 L 3017,1212 L 3016,1212 L 3015,1211 L 3014,1203 L 3015,1203 L 3014,1196 L 3012,1192 L 3012,1173 L 3013,1170 L 3014,1164 L 3014,1160 L 3016,1155 L 3017,1150 L 3017,1148 L 3025,1151 L 3027,1143 L 3038,1142 L 3039,1138 L 3043,1125 L 3045,1125 L 3049,1110 L 3051,1106 L 3051,1104 L 3053,1100 L 3054,1099 L 3055,1097 L 3056,1096 L 3060,1090 L 3066,1083 L 3068,1081 L 3069,1081 L 3070,1080 L 3071,1078 L 3072,1077 L 3074,1076 L 3078,1073 L 3140,1033 L 3141,1033 L 3183,1005 L 3184,1005 L 3185,1004 L 3184,1003 L 3158,943 L 3143,908 L 3128,909 L 3127,909 L 3131,891 L 3131,887 L 3138,852 L 3140,847 L 3140,846 L 3142,839 L 3142,838 L 3144,833 L 3146,829 L 3152,813 L 3154,805 L 3156,799 L 3158,792 L 3165,772 L 3172,756 L 3172,754 L 3175,751 L 3182,747 L 3183,747 L 3182,748 L 3176,751 L 3173,754 L 3175,753 L 3185,747 L 3187,746 L 3187,744 L 3186,745 L 3183,746 L 3185,744 L 3187,743 L 3188,731 L 3190,679 L 3203,670 L 3204,669 L 3223,658 L 3227,656 L 3238,652 L 3248,647 L 3271,636 L 3275,614 L 3275,612 L 3279,600 L 3284,581 L 3286,574 L 3287,573 L 3288,571 L 3289,568 L 3292,555 L 3293,548 L 3296,539 L 3297,535 L 3298,532 L 3302,512 L 3303,509 L 3303,501 L 3305,484 L 3306,475 L 3306,464 L 3302,465 L 3298,465 L 3289,466 L 3286,459 L 3284,453 L 3284,451 L 3283,450 L 3283,449 L 3282,445 L 3281,443 L 3276,444 L 3271,446 L 3267,447 L 3261,449 L 3253,452 L 3249,454 L 3238,460 L 3232,455 L 3222,447 L 3221,446 L 3218,444 L 3208,434 L 3200,428 L 3199,427 L 3183,414 L 3172,409 L 3169,407 L 3161,402 L 3157,399 L 3154,397 L 3135,385 L 3119,375 L 3113,371 L 3099,362 L 3095,360 L 3088,355 L 3069,332 L 3068,331 L 3050,311 L 3052,301 L 3052,300 L 3055,285 L 3055,284 L 3058,268 L 3065,223 L 3065,222 L 3068,208 L 3068,207 L 3072,180 L 3051,193 L 3050,193 L 3040,197 L 3032,201 L 3023,205 L 3022,206 L 3005,213 L 2988,226 L 2987,227 L 2986,225 L 2986,216 L 2985,215 L 2985,213 L 2984,212 L 2984,211 L 2980,205 L 2980,202 L 2991,173 L 2995,166 L 2997,164 L 3005,151 L 3015,133 L 3017,132 L 3016,131 L 3013,125 L 2997,143 L 2991,137 L 2990,137 L 2988,134 L 2987,132 L 2985,131 L 2985,130 L 2984,131 L 2979,138 L 2972,147 L 2953,174 L 2952,174 L 2920,218 L 2919,217 L 2900,208 L 2877,197 L 2850,233 L 2847,235 L 2824,260 L 2823,261 L 2818,267 L 2839,276 L 2863,296 L 2865,297 L 2896,325 L 2898,325 L 2956,333 L 2958,334 L 2972,336 L 2972,337 L 2973,338 L 2975,342 L 2977,345 L 2976,346 L 2976,349 L 2975,354 L 2975,358 L 2976,358 L 2976,359 L 2975,361 L 2975,362 L 2973,364 L 2973,365 L 2971,365 L 2968,368 L 2966,368 L 2966,369 L 2965,369 L 2964,370 L 2962,371 L 2961,373 L 2960,374 L 2959,374 L 2957,376 L 2956,378 L 2955,379 L 2951,382 L 2947,388 L 2946,388 L 2943,390 L 2941,390 L 2939,389 L 2938,390 L 2936,390 L 2931,391 L 2930,390 L 2927,390 L 2926,391 L 2924,392 L 2923,393 L 2919,395 L 2913,401 L 2912,401 L 2909,403 L 2909,404 L 2908,404 L 2905,406 L 2901,409 L 2899,412 L 2897,417 L 2897,418 L 2896,419 L 2895,421 L 2892,421 L 2889,422 L 2886,424 L 2882,425 L 2881,427 L 2878,430 L 2856,426 L 2855,426 L 2827,423 L 2827,412 L 2823,412 L 2823,411 L 2822,411 L 2820,410 L 2808,408 L 2798,407 L 2795,408 L 2793,408 L 2792,409 L 2790,409 L 2788,410 L 2787,411 L 2785,411 L 2781,413 L 2767,413 L 2766,415 L 2764,415 L 2763,418 L 2756,419 L 2756,415 L 2755,415 L 2750,416 L 2743,461 L 2738,461 L 2737,462 L 2723,465 L 2721,466 L 2720,466 L 2718,467 L 2715,467 L 2712,469 L 2711,469 L 2709,470 L 2705,471 L 2701,474 L 2699,496 L 2700,495 L 2704,492 L 2703,496 L 2701,497 L 2701,495 L 2699,497 L 2700,502 L 2703,526 L 2704,533 L 2705,542 L 2695,548 L 2660,547 L 2654,553 L 2638,568 L 2638,569 L 2635,566 L 2614,548 L 2603,539 L 2588,527 L 2586,525 L 2581,519 L 2576,512 L 2572,507 L 2575,500 L 2574,492 L 2572,490 L 2565,490 L 2558,480 L 2536,487 L 2532,488 L 2530,489 L 2529,489 L 2526,490 L 2524,487 L 2524,486 L 2517,477 L 2499,465 L 2485,452 L 2470,437 L 2460,428 L 2460,426 L 2459,426 L 2457,427 L 2456,427 L 2454,429 L 2453,431 L 2452,432 L 2452,433 L 2451,434 L 2449,435 L 2448,436 L 2447,435 L 2446,435 L 2446,434 L 2445,435 L 2445,436 L 2444,437 L 2443,437 L 2440,436 L 2439,435 L 2437,435 L 2436,437 L 2435,438 L 2435,440 L 2434,440 L 2434,441 L 2432,443 L 2431,445 L 2431,451 L 2426,451 L 2425,452 L 2427,452 L 2427,455 L 2424,455 L 2424,458 L 2425,457 L 2426,458 L 2426,459 L 2424,459 L 2423,458 L 2422,459 L 2424,460 L 2425,460 L 2425,461 L 2422,461 L 2422,462 L 2421,463 L 2421,465 L 2420,465 L 2419,466 L 2420,467 L 2421,467 L 2422,469 L 2421,470 L 2420,468 L 2419,469 L 2420,470 L 2419,471 L 2418,471 L 2419,473 L 2421,473 L 2421,474 L 2420,474 L 2418,476 L 2421,476 L 2422,477 L 2422,478 L 2420,478 L 2418,477 L 2416,479 L 2420,479 L 2421,478 L 2422,478 L 2422,479 L 2421,480 L 2421,481 L 2422,481 L 2422,482 L 2421,482 L 2421,483 L 2420,482 L 2420,480 L 2419,481 L 2418,481 L 2415,479 L 2415,483 L 2413,483 L 2413,486 L 2411,488 L 2411,489 L 2412,490 L 2412,491 L 2411,491 L 2411,491 L 2407,491 L 2408,492 L 2409,492 L 2410,493 L 2410,494 L 2408,495 L 2407,495 L 2407,496 L 2409,498 L 2408,498 L 2406,500 L 2406,502 L 2407,502 L 2408,501 L 2408,502 L 2407,503 L 2405,503 L 2405,502 L 2404,501 L 2404,502 L 2403,502 L 2404,504 L 2404,505 L 2406,505 L 2406,507 L 2407,508 L 2407,514 L 2408,514 L 2409,515 L 2409,518 L 2408,519 L 2408,519 L 2409,519 L 2409,520 L 2407,520 L 2407,521 L 2406,522 L 2406,524 L 2405,525 L 2403,525 L 2403,526 L 2404,526 L 2405,528 L 2405,529 L 2403,529 L 2404,530 L 2403,531 L 2403,532 L 2404,532 L 2404,531 L 2405,531 L 2405,534 L 2403,534 L 2403,535 L 2402,536 L 2401,538 L 2399,539 L 2400,540 L 2401,540 L 2401,542 L 2399,542 L 2400,543 L 2400,545 L 2396,545 L 2394,547 L 2395,548 L 2395,549 L 2394,550 L 2391,550 L 2390,549 L 2389,549 L 2389,550 L 2388,551 L 2387,551 L 2387,551 L 2386,552 L 2384,552 L 2384,551 L 2383,551 L 2383,554 L 2382,555 L 2381,555 L 2379,554 L 2379,555 L 2378,555 L 2378,556 L 2377,557 L 2376,557 L 2376,556 L 2375,556 L 2375,556 L 2374,557 L 2372,557 L 2372,558 L 2373,558 L 2373,560 L 2371,560 L 2371,559 L 2370,559 L 2370,558 L 2368,560 L 2368,559 L 2367,558 L 2365,558 L 2364,557 L 2363,557 L 2363,558 L 2362,558 L 2362,557 L 2361,555 L 2360,555 L 2359,557 L 2359,559 L 2357,559 L 2357,558 L 2356,557 L 2353,557 L 2351,559 L 2350,559 L 2352,561 L 2352,563 L 2351,563 L 2356,565 L 2357,571 L 2348,575 L 2341,579 L 2339,580 L 2338,580 L 2339,582 L 2338,582 L 2334,586 L 2329,581 L 2329,582 L 2326,585 L 2322,591 L 2322,595 L 2319,595 L 2316,598 L 2316,599 L 2319,599 L 2319,600 L 2317,602 L 2315,602 L 2314,603 L 2316,604 L 2317,604 L 2317,605 L 2316,605 L 2315,606 L 2314,606 L 2314,609 L 2313,609 L 2310,611 L 2310,612 L 2311,612 L 2311,613 L 2312,613 L 2313,614 L 2313,616 L 2312,616 L 2313,620 L 2314,623 L 2314,624 L 2315,626 L 2315,628 L 2318,631 L 2317,632 L 2317,634 L 2316,634 L 2317,636 L 2317,637 L 2316,639 L 2314,637 L 2313,638 L 2313,639 L 2315,640 L 2315,641 L 2312,641 L 2310,639 L 2309,640 L 2312,643 L 2313,645 L 2313,647 L 2312,648 L 2310,647 L 2309,647 L 2309,646 L 2307,644 L 2306,644 L 2305,645 L 2305,647 L 2304,649 L 2303,650 L 2302,652 L 2301,651 L 2301,654 L 2298,652 L 2298,655 L 2297,655 L 2295,653 L 2292,656 L 2291,656 L 2290,657 L 2289,656 L 2288,656 L 2287,657 L 2286,659 L 2283,659 L 2281,658 L 2281,660 L 2280,661 L 2278,660 L 2276,658 L 2275,659 L 2273,662 L 2271,662 L 2271,665 L 2269,666 L 2269,668 L 2268,668 L 2268,670 L 2267,671 L 2267,673 L 2264,673 L 2264,675 L 2262,677 L 2260,678 L 2258,677 L 2257,677 L 2256,678 L 2254,677 L 2254,673 L 2252,675 L 2251,675 L 2251,676 L 2250,676 L 2250,675 L 2249,675 L 2249,678 L 2250,679 L 2250,680 z"
       style="fill:#ff7f2a;stroke:#e00000;stroke-opacity:1;stroke-width:8;stroke-miterlimit:4;stroke-dasharray:none" />
    <path cartogramvalue="3"
       id="Charlottenburg-Wilmersdorf"
       d="M 1223,1941 L 1223,1941 L 1221,1946 L 1219,1952 L 1214,1964 L 1213,1965 L 1216,1966 L 1217,1967 L 1218,1967 L 1218,1969 L 1212,1967 L 1210,1967 L 1208,1969 L 1206,1970 L 1201,1970 L 1200,1969 L 1195,1968 L 1191,1967 L 1186,1976 L 1182,1991 L 1170,2014 L 1174,2022 L 1177,2038 L 1145,2055 L 1119,2066 L 1104,2072 L 1077,2073 L 1054,2085 L 1042,2097 L 1039,2126 L 1039,2148 L 1026,2167 L 1019,2189 L 1022,2213 L 1040,2244 L 1042,2263 L 1035,2279 L 1022,2307 L 1029,2359 L 1028,2383 L 1063,2391 L 1072,2393 L 1076,2390 L 1084,2389 L 1087,2390 L 1089,2391 L 1092,2396 L 1093,2398 L 1093,2411 L 1095,2413 L 1096,2415 L 1102,2418 L 1104,2418 L 1113,2415 L 1119,2405 L 1122,2403 L 1126,2402 L 1132,2399 L 1142,2398 L 1144,2398 L 1145,2399 L 1151,2400 L 1153,2401 L 1156,2402 L 1163,2405 L 1171,2407 L 1175,2407 L 1181,2409 L 1186,2411 L 1188,2411 L 1190,2410 L 1191,2409 L 1193,2409 L 1198,2410 L 1199,2410 L 1202,2408 L 1204,2407 L 1218,2404 L 1219,2403 L 1223,2403 L 1236,2404 L 1262,2405 L 1267,2404 L 1270,2405 L 1282,2404 L 1291,2401 L 1303,2400 L 1314,2397 L 1322,2397 L 1331,2401 L 1338,2404 L 1347,2409 L 1357,2412 L 1362,2413 L 1363,2413 L 1365,2414 L 1369,2415 L 1374,2416 L 1374,2417 L 1391,2421 L 1398,2423 L 1407,2426 L 1409,2426 L 1427,2431 L 1429,2432 L 1430,2431 L 1432,2433 L 1433,2433 L 1465,2443 L 1473,2443 L 1481,2442 L 1487,2443 L 1496,2444 L 1504,2445 L 1510,2445 L 1512,2443 L 1515,2443 L 1520,2439 L 1522,2436 L 1528,2431 L 1531,2436 L 1532,2438 L 1534,2439 L 1535,2440 L 1538,2440 L 1540,2441 L 1544,2440 L 1547,2439 L 1558,2437 L 1560,2436 L 1562,2437 L 1601,2430 L 1607,2428 L 1608,2428 L 1628,2425 L 1630,2425 L 1639,2423 L 1641,2422 L 1641,2424 L 1643,2423 L 1648,2422 L 1650,2422 L 1658,2420 L 1660,2419 L 1662,2419 L 1672,2416 L 1673,2416 L 1685,2412 L 1686,2411 L 1691,2409 L 1692,2409 L 1702,2405 L 1704,2405 L 1714,2401 L 1716,2405 L 1719,2409 L 1721,2406 L 1721,2404 L 1735,2408 L 1737,2409 L 1756,2414 L 1758,2415 L 1773,2420 L 1775,2420 L 1810,2430 L 1811,2430 L 1830,2435 L 1831,2436 L 1831,2437 L 1839,2431 L 1844,2435 L 1845,2435 L 1846,2436 L 1850,2433 L 1852,2435 L 1853,2437 L 1856,2439 L 1858,2441 L 1860,2442 L 1861,2441 L 1863,2440 L 1864,2440 L 1896,2441 L 1915,2441 L 1918,2442 L 1923,2442 L 1924,2440 L 1924,2422 L 1925,2421 L 1925,2410 L 1928,2407 L 1928,2405 L 1926,2404 L 1926,2400 L 1925,2400 L 1925,2389 L 1926,2388 L 1926,2352 L 1927,2351 L 1927,2325 L 1928,2325 L 1980,2326 L 1985,2326 L 2010,2327 L 2012,2327 L 2012,2323 L 2013,2323 L 2012,2322 L 2013,2322 L 2019,2321 L 2040,2318 L 2040,2310 L 2041,2299 L 2041,2290 L 2040,2289 L 2040,2274 L 2041,2269 L 2041,2232 L 2040,2232 L 2040,2228 L 2041,2223 L 2041,2208 L 2042,2208 L 2041,2204 L 2040,2203 L 2040,2197 L 2039,2194 L 2039,2192 L 2040,2192 L 2040,2190 L 2039,2190 L 2040,2187 L 2040,2182 L 2041,2181 L 2043,2181 L 2044,2178 L 2041,2175 L 2042,2163 L 2042,2161 L 2041,2161 L 2041,2157 L 2042,2145 L 2043,2142 L 2043,2141 L 2044,2140 L 2044,2134 L 2043,2133 L 2042,2121 L 2043,2121 L 2043,2120 L 2042,2120 L 2043,2119 L 2046,2104 L 2047,2104 L 2047,2101 L 2048,2099 L 2054,2081 L 2053,2078 L 2054,2076 L 2053,2075 L 2046,2071 L 2044,2070 L 2041,2067 L 2042,2065 L 2056,2043 L 2059,2039 L 2071,2021 L 2071,2020 L 2067,2019 L 2065,2018 L 2062,2018 L 2061,2017 L 2059,2017 L 2057,2018 L 2055,2018 L 2054,2014 L 2052,2009 L 2042,2011 L 2039,2011 L 2033,2010 L 2032,2010 L 2031,2009 L 2021,2002 L 2021,2001 L 2019,2000 L 2027,1984 L 2027,1980 L 2026,1979 L 2026,1978 L 2025,1977 L 2025,1976 L 2024,1976 L 2021,1975 L 2020,1976 L 2016,1974 L 1994,1962 L 2011,1953 L 2015,1951 L 2017,1949 L 2019,1948 L 2021,1944 L 2020,1943 L 2020,1944 L 2004,1938 L 2003,1938 L 2001,1937 L 1999,1935 L 1998,1933 L 1998,1932 L 2001,1932 L 2003,1931 L 2004,1932 L 2005,1932 L 2005,1931 L 2009,1929 L 2010,1929 L 2034,1927 L 2035,1921 L 2036,1919 L 2034,1920 L 2036,1914 L 2034,1913 L 2030,1909 L 2030,1907 L 2027,1902 L 2023,1888 L 2021,1889 L 2010,1889 L 2007,1888 L 2003,1886 L 2000,1884 L 1994,1878 L 1993,1876 L 1991,1874 L 1990,1872 L 1988,1866 L 1988,1860 L 1989,1857 L 1991,1847 L 1991,1837 L 1990,1835 L 1990,1833 L 1988,1829 L 1987,1828 L 1987,1826 L 1985,1824 L 1973,1810 L 1969,1806 L 1967,1805 L 1964,1804 L 1962,1803 L 1961,1802 L 1958,1801 L 1956,1800 L 1941,1800 L 1939,1801 L 1937,1801 L 1934,1802 L 1933,1803 L 1927,1806 L 1925,1808 L 1924,1810 L 1922,1812 L 1919,1818 L 1919,1820 L 1918,1825 L 1918,1839 L 1914,1845 L 1911,1848 L 1904,1842 L 1904,1841 L 1895,1802 L 1893,1791 L 1893,1789 L 1892,1785 L 1882,1740 L 1882,1738 L 1883,1737 L 1886,1736 L 1887,1736 L 1890,1734 L 1905,1730 L 1904,1727 L 1905,1727 L 1906,1726 L 1908,1723 L 1907,1718 L 1910,1714 L 1907,1714 L 1886,1718 L 1884,1719 L 1883,1718 L 1881,1719 L 1880,1719 L 1879,1716 L 1878,1714 L 1876,1711 L 1871,1689 L 1869,1678 L 1969,1655 L 1972,1655 L 1975,1654 L 1983,1652 L 1986,1652 L 1988,1650 L 1989,1650 L 1985,1645 L 1982,1640 L 1976,1633 L 1976,1622 L 1977,1620 L 1977,1613 L 1972,1610 L 1967,1605 L 1965,1602 L 1962,1599 L 1952,1586 L 1947,1578 L 1943,1574 L 1930,1558 L 1924,1550 L 1922,1546 L 1918,1543 L 1914,1538 L 1895,1536 L 1879,1536 L 1868,1535 L 1862,1534 L 1836,1532 L 1802,1530 L 1798,1530 L 1768,1529 L 1765,1529 L 1602,1524 L 1592,1523 L 1593,1524 L 1590,1524 L 1591,1525 L 1590,1530 L 1590,1535 L 1592,1539 L 1593,1542 L 1595,1545 L 1596,1550 L 1611,1595 L 1609,1595 L 1612,1602 L 1612,1605 L 1611,1607 L 1611,1609 L 1606,1631 L 1605,1634 L 1605,1636 L 1603,1641 L 1605,1641 L 1610,1643 L 1616,1646 L 1623,1653 L 1625,1656 L 1626,1658 L 1625,1659 L 1627,1663 L 1628,1664 L 1629,1668 L 1629,1670 L 1630,1672 L 1630,1675 L 1631,1676 L 1630,1676 L 1658,1690 L 1663,1692 L 1667,1693 L 1670,1694 L 1669,1698 L 1670,1699 L 1665,1723 L 1665,1725 L 1664,1733 L 1663,1734 L 1661,1738 L 1660,1737 L 1655,1736 L 1653,1736 L 1651,1735 L 1649,1735 L 1640,1738 L 1638,1739 L 1635,1741 L 1629,1746 L 1626,1749 L 1623,1750 L 1619,1752 L 1615,1752 L 1612,1753 L 1599,1751 L 1571,1751 L 1571,1752 L 1558,1752 L 1550,1753 L 1551,1754 L 1545,1756 L 1542,1758 L 1539,1759 L 1535,1761 L 1525,1767 L 1517,1769 L 1487,1771 L 1465,1771 L 1452,1770 L 1446,1769 L 1439,1765 L 1436,1763 L 1432,1759 L 1429,1757 L 1427,1764 L 1429,1764 L 1430,1765 L 1432,1769 L 1432,1778 L 1433,1784 L 1433,1787 L 1434,1790 L 1436,1798 L 1435,1802 L 1429,1799 L 1427,1799 L 1425,1798 L 1425,1799 L 1416,1795 L 1410,1792 L 1409,1792 L 1406,1791 L 1391,1784 L 1385,1782 L 1384,1781 L 1383,1784 L 1374,1781 L 1359,1781 L 1349,1782 L 1343,1782 L 1324,1785 L 1323,1784 L 1322,1784 L 1304,1782 L 1303,1784 L 1303,1785 L 1298,1786 L 1289,1784 L 1279,1784 L 1269,1782 L 1266,1781 L 1262,1780 L 1259,1785 L 1260,1786 L 1260,1787 L 1256,1797 L 1251,1811 L 1247,1819 L 1244,1827 L 1243,1833 L 1243,1840 L 1244,1867 L 1246,1892 L 1248,1909 L 1249,1912 L 1254,1920 L 1245,1920 L 1245,1915 L 1243,1915 L 1239,1923 L 1237,1922 L 1233,1928 L 1228,1935 L 1225,1938 L 1223,1941 z"
       style="fill:#ffb380;stroke:#e00000;stroke-opacity:1;stroke-width:8;stroke-miterlimit:4;stroke-dasharray:none" />
    <path cartogramvalue="3"
       id="Spandau"
       d="M 1017,2442 L 1017,2442 L 1008,2486 L 979,2519 L 955,2560 L 910,2558 L 848,2600 L 847,2601 L 821,2633 L 800,2660 L 797,2663 L 757,2698 L 671,2709 L 653,2712 L 643,2723 L 636,2719 L 628,2720 L 618,2724 L 610,2722 L 590,2727 L 584,2739 L 562,2717 L 561,2715 L 558,2707 L 556,2702 L 556,2698 L 557,2692 L 556,2690 L 551,2685 L 545,2681 L 540,2677 L 531,2671 L 526,2663 L 520,2655 L 516,2650 L 506,2636 L 500,2629 L 496,2622 L 491,2615 L 494,2607 L 501,2595 L 504,2588 L 508,2579 L 508,2578 L 509,2573 L 510,2566 L 511,2560 L 512,2553 L 514,2537 L 513,2524 L 506,2472 L 506,2436 L 543,2375 L 548,2357 L 551,2349 L 551,2319 L 570,2315 L 574,2314 L 578,2312 L 581,2312 L 591,2309 L 608,2305 L 610,2303 L 622,2292 L 632,2279 L 672,2229 L 707,2185 L 767,2110 L 779,2098 L 787,2089 L 788,2088 L 799,2075 L 820,2050 L 829,2040 L 834,2035 L 843,2027 L 857,2011 L 873,1993 L 888,1978 L 892,1973 L 894,1970 L 900,1967 L 882,1956 L 867,1948 L 863,1945 L 856,1941 L 841,1931 L 830,1924 L 824,1923 L 811,1915 L 807,1913 L 807,1912 L 803,1910 L 800,1908 L 792,1902 L 784,1895 L 773,1889 L 755,1877 L 749,1875 L 743,1874 L 739,1867 L 737,1860 L 734,1855 L 729,1851 L 726,1849 L 723,1848 L 720,1849 L 718,1849 L 707,1851 L 695,1855 L 687,1858 L 679,1859 L 678,1859 L 675,1860 L 663,1862 L 662,1862 L 661,1863 L 658,1864 L 654,1865 L 652,1865 L 650,1866 L 649,1866 L 645,1865 L 625,1870 L 616,1871 L 615,1872 L 604,1872 L 588,1873 L 572,1876 L 564,1878 L 551,1876 L 558,1831 L 558,1827 L 559,1808 L 560,1799 L 561,1786 L 563,1770 L 563,1754 L 564,1746 L 564,1739 L 565,1736 L 567,1727 L 568,1722 L 570,1715 L 572,1709 L 578,1697 L 578,1693 L 579,1692 L 580,1686 L 582,1680 L 582,1678 L 584,1674 L 585,1673 L 587,1667 L 592,1658 L 593,1655 L 595,1646 L 595,1643 L 597,1638 L 598,1634 L 598,1632 L 599,1632 L 604,1607 L 608,1585 L 609,1582 L 605,1579 L 607,1572 L 609,1559 L 613,1548 L 615,1544 L 618,1530 L 621,1520 L 623,1515 L 624,1513 L 624,1511 L 625,1505 L 631,1486 L 634,1474 L 635,1473 L 640,1454 L 642,1447 L 643,1444 L 648,1448 L 654,1454 L 656,1457 L 662,1465 L 663,1467 L 669,1474 L 682,1481 L 684,1481 L 696,1483 L 697,1483 L 705,1484 L 717,1484 L 718,1485 L 724,1486 L 729,1488 L 736,1488 L 738,1483 L 740,1484 L 742,1483 L 747,1479 L 748,1474 L 752,1466 L 754,1464 L 755,1459 L 756,1458 L 756,1457 L 757,1446 L 754,1433 L 754,1416 L 752,1409 L 750,1407 L 749,1396 L 747,1393 L 748,1390 L 756,1384 L 758,1373 L 758,1356 L 759,1351 L 760,1347 L 762,1344 L 763,1342 L 766,1338 L 775,1325 L 776,1321 L 778,1311 L 784,1298 L 785,1289 L 791,1285 L 792,1284 L 794,1278 L 795,1277 L 796,1271 L 796,1266 L 795,1262 L 800,1253 L 800,1239 L 801,1236 L 800,1229 L 801,1226 L 800,1215 L 801,1207 L 800,1202 L 798,1198 L 798,1190 L 796,1186 L 792,1177 L 791,1173 L 790,1172 L 786,1160 L 786,1153 L 781,1149 L 777,1146 L 774,1140 L 766,1144 L 757,1148 L 749,1151 L 741,1155 L 736,1160 L 730,1161 L 723,1163 L 710,1169 L 704,1173 L 692,1172 L 686,1175 L 683,1176 L 679,1177 L 678,1177 L 659,1182 L 658,1181 L 655,1179 L 653,1175 L 650,1167 L 649,1159 L 645,1146 L 643,1143 L 641,1141 L 639,1141 L 634,1142 L 628,1142 L 637,1111 L 631,1110 L 635,1096 L 649,1100 L 660,1100 L 679,1095 L 681,1094 L 686,1090 L 696,1080 L 698,1079 L 705,1077 L 722,1074 L 732,1071 L 734,1070 L 740,1066 L 771,1047 L 772,1046 L 792,1023 L 800,1011 L 804,1003 L 806,1002 L 815,993 L 820,987 L 826,982 L 876,970 L 877,969 L 882,974 L 894,984 L 899,989 L 901,989 L 907,991 L 914,992 L 918,994 L 927,998 L 931,1000 L 934,1004 L 938,1008 L 946,1011 L 956,1012 L 959,1013 L 969,1014 L 987,1023 L 992,1024 L 1003,1027 L 1011,1030 L 1019,1041 L 1028,1046 L 1034,1048 L 1035,1049 L 1043,1053 L 1055,1064 L 1058,1066 L 1074,1070 L 1095,1074 L 1101,1077 L 1106,1080 L 1110,1081 L 1117,1082 L 1127,1087 L 1131,1091 L 1133,1092 L 1153,1104 L 1162,1107 L 1163,1100 L 1165,1094 L 1166,1087 L 1172,1087 L 1178,1088 L 1186,1088 L 1192,1089 L 1199,1090 L 1205,1091 L 1210,1092 L 1211,1093 L 1234,1097 L 1228,1118 L 1223,1124 L 1222,1132 L 1231,1147 L 1239,1169 L 1238,1197 L 1241,1207 L 1250,1221 L 1258,1231 L 1277,1246 L 1282,1252 L 1286,1259 L 1287,1262 L 1286,1275 L 1287,1279 L 1297,1299 L 1299,1317 L 1301,1321 L 1302,1322 L 1304,1325 L 1307,1329 L 1308,1331 L 1309,1334 L 1309,1343 L 1308,1347 L 1304,1357 L 1304,1363 L 1305,1366 L 1307,1369 L 1323,1388 L 1324,1387 L 1326,1390 L 1331,1396 L 1338,1403 L 1373,1432 L 1374,1432 L 1378,1434 L 1378,1437 L 1380,1438 L 1381,1439 L 1391,1448 L 1393,1449 L 1393,1448 L 1446,1492 L 1448,1493 L 1449,1494 L 1457,1501 L 1461,1503 L 1465,1506 L 1469,1508 L 1474,1511 L 1489,1517 L 1496,1519 L 1512,1521 L 1524,1522 L 1534,1522 L 1553,1523 L 1579,1523 L 1590,1524 L 1591,1525 L 1590,1530 L 1590,1535 L 1592,1539 L 1593,1542 L 1595,1545 L 1596,1550 L 1611,1595 L 1609,1595 L 1612,1602 L 1612,1605 L 1611,1607 L 1611,1609 L 1606,1631 L 1605,1634 L 1605,1636 L 1603,1641 L 1605,1641 L 1610,1643 L 1616,1646 L 1623,1653 L 1625,1656 L 1626,1658 L 1625,1659 L 1627,1663 L 1628,1664 L 1629,1668 L 1629,1670 L 1630,1672 L 1630,1675 L 1631,1676 L 1630,1676 L 1658,1690 L 1663,1692 L 1667,1693 L 1670,1694 L 1669,1698 L 1670,1699 L 1665,1723 L 1665,1725 L 1664,1733 L 1663,1734 L 1661,1738 L 1660,1737 L 1655,1736 L 1653,1736 L 1651,1735 L 1649,1735 L 1640,1738 L 1638,1739 L 1635,1741 L 1629,1746 L 1626,1749 L 1623,1750 L 1619,1752 L 1615,1752 L 1612,1753 L 1599,1751 L 1571,1751 L 1571,1752 L 1558,1752 L 1550,1753 L 1551,1754 L 1545,1756 L 1542,1758 L 1539,1759 L 1535,1761 L 1525,1767 L 1517,1769 L 1487,1771 L 1465,1771 L 1452,1770 L 1446,1769 L 1439,1765 L 1436,1763 L 1432,1759 L 1429,1757 L 1427,1764 L 1429,1764 L 1430,1765 L 1432,1769 L 1432,1778 L 1433,1784 L 1433,1787 L 1434,1790 L 1436,1798 L 1435,1802 L 1429,1799 L 1427,1799 L 1425,1798 L 1425,1799 L 1416,1795 L 1410,1792 L 1409,1792 L 1406,1791 L 1391,1784 L 1385,1782 L 1384,1781 L 1383,1784 L 1374,1781 L 1359,1781 L 1349,1782 L 1343,1782 L 1324,1785 L 1323,1784 L 1322,1784 L 1304,1782 L 1303,1784 L 1303,1785 L 1298,1786 L 1289,1784 L 1279,1784 L 1269,1782 L 1266,1781 L 1262,1780 L 1259,1785 L 1260,1786 L 1260,1787 L 1256,1797 L 1251,1811 L 1247,1819 L 1244,1827 L 1243,1833 L 1243,1840 L 1244,1867 L 1246,1892 L 1248,1909 L 1249,1912 L 1254,1920 L 1245,1920 L 1245,1915 L 1243,1915 L 1239,1923 L 1237,1922 L 1233,1928 L 1228,1935 L 1225,1938 L 1223,1941 L 1221,1946 L 1219,1952 L 1214,1964 L 1213,1965 L 1216,1966 L 1217,1967 L 1218,1967 L 1218,1969 L 1212,1967 L 1210,1967 L 1208,1969 L 1206,1970 L 1201,1970 L 1200,1969 L 1195,1968 L 1191,1967 L 1186,1976 L 1182,1991 L 1170,2014 L 1174,2022 L 1177,2038 L 1145,2055 L 1119,2066 L 1104,2072 L 1077,2073 L 1054,2085 L 1042,2097 L 1039,2126 L 1039,2148 L 1026,2167 L 1019,2189 L 1022,2213 L 1040,2244 L 1042,2263 L 1035,2279 L 1022,2307 L 1029,2359 L 1028,2383 L 1017,2442 z"
       style="fill:#ffe6d5;stroke:#e00000;stroke-opacity:1;stroke-width:8;stroke-miterlimit:4;stroke-dasharray:none" />
    <path cartogramvalue="3"
       id="Steglitz-Zehlendorf"
       d="M 1017,2442 L 1017,2442 L 1008,2486 L 979,2519 L 955,2560 L 910,2558 L 848,2600 L 847,2601 L 821,2633 L 800,2660 L 797,2663 L 757,2698 L 671,2709 L 653,2712 L 643,2723 L 636,2719 L 628,2720 L 618,2724 L 610,2722 L 590,2727 L 584,2739 L 584,2749 L 577,2758 L 575,2760 L 544,2777 L 521,2812 L 509,2819 L 514,2854 L 481,2883 L 479,2886 L 473,2894 L 464,2899 L 458,2913 L 449,2908 L 441,2906 L 436,2904 L 431,2899 L 425,2896 L 421,2898 L 414,2905 L 413,2910 L 410,2918 L 396,2936 L 345,2961 L 358,3027 L 358,3040 L 359,3045 L 362,3050 L 368,3052 L 370,3053 L 372,3055 L 374,3058 L 376,3059 L 377,3060 L 405,3074 L 410,3068 L 413,3066 L 415,3064 L 414,3064 L 417,3059 L 417,3055 L 409,3050 L 400,3033 L 402,3031 L 421,3026 L 426,3025 L 430,3026 L 430,3030 L 429,3034 L 431,3043 L 432,3051 L 431,3061 L 456,3071 L 460,3069 L 464,3073 L 469,3072 L 473,3068 L 473,3057 L 474,3044 L 474,3038 L 472,3033 L 474,3031 L 477,3031 L 489,3035 L 490,3035 L 493,3054 L 503,3052 L 504,3063 L 495,3064 L 497,3072 L 496,3072 L 496,3074 L 482,3076 L 471,3073 L 470,3076 L 469,3081 L 468,3081 L 468,3082 L 471,3083 L 480,3084 L 483,3085 L 488,3089 L 487,3091 L 480,3098 L 490,3106 L 499,3120 L 500,3128 L 504,3134 L 534,3153 L 544,3155 L 549,3165 L 559,3179 L 572,3195 L 586,3208 L 592,3214 L 597,3216 L 601,3217 L 605,3217 L 613,3215 L 618,3213 L 639,3199 L 644,3195 L 651,3187 L 660,3195 L 661,3196 L 671,3200 L 673,3201 L 682,3204 L 682,3206 L 671,3208 L 662,3209 L 665,3221 L 666,3222 L 666,3223 L 678,3223 L 676,3224 L 678,3225 L 680,3223 L 681,3224 L 685,3224 L 684,3225 L 688,3225 L 683,3228 L 670,3239 L 664,3245 L 659,3249 L 654,3254 L 639,3271 L 637,3271 L 637,3270 L 636,3272 L 636,3273 L 637,3272 L 628,3286 L 626,3283 L 633,3272 L 634,3273 L 635,3271 L 633,3272 L 623,3272 L 623,3273 L 608,3273 L 604,3296 L 614,3304 L 615,3305 L 621,3310 L 631,3320 L 634,3322 L 635,3322 L 636,3319 L 640,3319 L 648,3321 L 654,3305 L 652,3305 L 649,3306 L 646,3305 L 639,3298 L 629,3287 L 641,3272 L 647,3265 L 655,3256 L 657,3253 L 660,3251 L 684,3231 L 694,3224 L 696,3222 L 708,3213 L 709,3214 L 717,3211 L 718,3215 L 718,3217 L 717,3218 L 721,3224 L 728,3227 L 734,3231 L 741,3232 L 749,3233 L 763,3235 L 771,3236 L 778,3237 L 786,3238 L 823,3249 L 885,3244 L 891,3244 L 911,3230 L 908,3209 L 908,3207 L 897,3211 L 893,3211 L 889,3212 L 887,3212 L 834,3220 L 816,3223 L 816,3221 L 817,3212 L 817,3208 L 821,3200 L 823,3193 L 826,3187 L 827,3181 L 827,3150 L 828,3150 L 929,3095 L 932,3093 L 1003,3055 L 1004,3055 L 1082,3013 L 1082,3012 L 1086,3010 L 1101,3011 L 1106,3010 L 1113,3010 L 1120,3009 L 1136,3007 L 1170,2997 L 1182,2992 L 1187,2990 L 1194,2986 L 1198,2985 L 1202,2983 L 1217,2974 L 1221,2970 L 1228,2969 L 1229,2968 L 1238,2965 L 1253,2959 L 1266,2953 L 1266,2954 L 1275,2949 L 1277,2951 L 1277,2952 L 1286,2952 L 1299,2955 L 1300,2955 L 1331,2958 L 1339,2955 L 1340,2954 L 1348,2952 L 1362,2953 L 1385,2951 L 1418,2949 L 1426,2975 L 1428,2990 L 1429,2994 L 1430,2999 L 1431,3009 L 1431,3011 L 1434,3024 L 1438,3054 L 1438,3087 L 1436,3091 L 1439,3097 L 1440,3102 L 1440,3111 L 1441,3113 L 1443,3127 L 1443,3130 L 1453,3123 L 1454,3122 L 1459,3120 L 1467,3117 L 1470,3117 L 1475,3116 L 1493,3114 L 1497,3114 L 1502,3115 L 1513,3117 L 1518,3118 L 1523,3121 L 1536,3130 L 1542,3132 L 1553,3136 L 1560,3138 L 1574,3138 L 1584,3139 L 1593,3138 L 1608,3133 L 1616,3129 L 1619,3128 L 1620,3128 L 1628,3121 L 1644,3110 L 1651,3104 L 1681,3077 L 1718,3044 L 1720,3042 L 1739,3024 L 1746,3019 L 1755,3011 L 1763,3005 L 1764,3007 L 1764,3008 L 1766,3014 L 1765,3019 L 1763,3022 L 1760,3024 L 1758,3025 L 1759,3028 L 1760,3029 L 1775,3052 L 1776,3054 L 1792,3079 L 1794,3081 L 1800,3090 L 1801,3091 L 1809,3103 L 1812,3108 L 1820,3121 L 1840,3151 L 1845,3160 L 1849,3168 L 1861,3186 L 1866,3196 L 1867,3197 L 1879,3182 L 1880,3181 L 1882,3180 L 1898,3169 L 1910,3161 L 1911,3160 L 1915,3158 L 1921,3154 L 1925,3152 L 1969,3124 L 2018,3095 L 2028,3089 L 2047,3077 L 2071,3062 L 2073,3061 L 2079,3057 L 2077,3057 L 2077,3056 L 2078,3052 L 2078,3038 L 2077,3033 L 2076,3030 L 2082,3026 L 2084,3025 L 2092,3020 L 2098,3016 L 2114,3008 L 2115,3007 L 2128,3001 L 2129,3000 L 2132,2999 L 2143,2992 L 2143,2991 L 2144,2991 L 2144,2990 L 2158,2984 L 2159,2983 L 2187,2967 L 2189,2966 L 2188,2965 L 2196,2959 L 2198,2958 L 2199,2958 L 2204,2956 L 2206,2954 L 2216,2950 L 2216,2949 L 2217,2949 L 2217,2948 L 2218,2948 L 2218,2947 L 2221,2942 L 2221,2941 L 2222,2940 L 2230,2922 L 2230,2921 L 2244,2891 L 2244,2889 L 2248,2881 L 2249,2880 L 2252,2882 L 2263,2873 L 2270,2868 L 2270,2867 L 2271,2866 L 2273,2865 L 2270,2856 L 2263,2837 L 2258,2825 L 2257,2821 L 2255,2814 L 2251,2804 L 2247,2792 L 2246,2790 L 2243,2781 L 2242,2779 L 2236,2760 L 2232,2748 L 2228,2739 L 2218,2712 L 2216,2707 L 2216,2706 L 2213,2698 L 2213,2697 L 2214,2695 L 2213,2692 L 2212,2693 L 2211,2692 L 2209,2685 L 2205,2674 L 2204,2671 L 2202,2667 L 2203,2666 L 2203,2665 L 2202,2665 L 2202,2664 L 2201,2664 L 2201,2661 L 2199,2657 L 2193,2638 L 2191,2634 L 2188,2624 L 2186,2622 L 2186,2621 L 2185,2619 L 2185,2618 L 2184,2616 L 2183,2611 L 2181,2606 L 2178,2599 L 2176,2595 L 2177,2593 L 2174,2587 L 2174,2586 L 2171,2578 L 2171,2576 L 2169,2569 L 2156,2569 L 2156,2566 L 2155,2565 L 2154,2561 L 2150,2553 L 2147,2552 L 2144,2553 L 2141,2555 L 2137,2556 L 2134,2557 L 2133,2558 L 2125,2556 L 2121,2556 L 2121,2534 L 2116,2534 L 2114,2533 L 2113,2533 L 2111,2531 L 2112,2529 L 2106,2519 L 2093,2501 L 2091,2499 L 2080,2486 L 2079,2485 L 2076,2483 L 2064,2470 L 2062,2467 L 2061,2467 L 2052,2458 L 2051,2447 L 2050,2447 L 2045,2444 L 2038,2440 L 2034,2438 L 2032,2442 L 2025,2451 L 2024,2450 L 2018,2451 L 2016,2452 L 2002,2454 L 1997,2461 L 1997,2462 L 1996,2462 L 1996,2461 L 1988,2457 L 1983,2465 L 1980,2471 L 1977,2469 L 1976,2468 L 1954,2456 L 1953,2455 L 1943,2449 L 1941,2448 L 1931,2442 L 1918,2442 L 1915,2441 L 1896,2441 L 1864,2440 L 1863,2440 L 1861,2441 L 1860,2442 L 1858,2441 L 1856,2439 L 1853,2437 L 1852,2435 L 1850,2433 L 1846,2436 L 1845,2435 L 1844,2435 L 1839,2431 L 1831,2437 L 1831,2436 L 1830,2435 L 1811,2430 L 1810,2430 L 1775,2420 L 1773,2420 L 1758,2415 L 1756,2414 L 1737,2409 L 1735,2408 L 1721,2404 L 1721,2406 L 1719,2409 L 1716,2405 L 1714,2401 L 1704,2405 L 1702,2405 L 1692,2409 L 1691,2409 L 1686,2411 L 1685,2412 L 1673,2416 L 1672,2416 L 1662,2419 L 1660,2419 L 1658,2420 L 1650,2422 L 1648,2422 L 1643,2423 L 1641,2424 L 1641,2422 L 1639,2423 L 1630,2425 L 1628,2425 L 1608,2428 L 1607,2428 L 1601,2430 L 1562,2437 L 1560,2436 L 1558,2437 L 1547,2439 L 1544,2440 L 1540,2441 L 1538,2440 L 1535,2440 L 1534,2439 L 1532,2438 L 1531,2436 L 1528,2431 L 1522,2436 L 1520,2439 L 1515,2443 L 1512,2443 L 1510,2445 L 1504,2445 L 1496,2444 L 1487,2443 L 1481,2442 L 1473,2443 L 1465,2443 L 1433,2433 L 1432,2433 L 1430,2431 L 1429,2432 L 1427,2431 L 1409,2426 L 1407,2426 L 1398,2423 L 1391,2421 L 1374,2417 L 1374,2416 L 1369,2415 L 1365,2414 L 1363,2413 L 1362,2413 L 1357,2412 L 1347,2409 L 1338,2404 L 1331,2401 L 1322,2397 L 1314,2397 L 1303,2400 L 1291,2401 L 1282,2404 L 1270,2405 L 1267,2404 L 1262,2405 L 1236,2404 L 1223,2403 L 1219,2403 L 1218,2404 L 1204,2407 L 1202,2408 L 1199,2410 L 1198,2410 L 1193,2409 L 1191,2409 L 1190,2410 L 1188,2411 L 1186,2411 L 1181,2409 L 1175,2407 L 1171,2407 L 1163,2405 L 1156,2402 L 1153,2401 L 1151,2400 L 1145,2399 L 1144,2398 L 1142,2398 L 1132,2399 L 1126,2402 L 1122,2403 L 1119,2405 L 1113,2415 L 1104,2418 L 1102,2418 L 1096,2415 L 1095,2413 L 1093,2411 L 1093,2398 L 1092,2396 L 1089,2391 L 1087,2390 L 1084,2389 L 1076,2390 L 1072,2393 L 1063,2391 L 1028,2383 L 1017,2442 z"
       style="fill:#ffb380;stroke:#e00000;stroke-opacity:1;stroke-width:8;stroke-miterlimit:4;stroke-dasharray:none" />
    <path cartogramvalue="3"
       id="Tempelhof-Schoeneberg"
       d="M 2581,2608 L 2581,2608 L 2578,2617 L 2576,2624 L 2574,2641 L 2569,2650 L 2567,2666 L 2566,2670 L 2562,2677 L 2561,2680 L 2558,2693 L 2558,2694 L 2549,2727 L 2543,2754 L 2542,2757 L 2540,2767 L 2538,2773 L 2537,2778 L 2537,2787 L 2533,2797 L 2529,2808 L 2528,2810 L 2528,2813 L 2527,2817 L 2527,2820 L 2525,2825 L 2517,2844 L 2514,2852 L 2513,2854 L 2512,2857 L 2511,2869 L 2511,2870 L 2508,2883 L 2508,2888 L 2505,2895 L 2504,2899 L 2502,2903 L 2494,2920 L 2491,2927 L 2489,2931 L 2488,2934 L 2488,2933 L 2487,2935 L 2487,2936 L 2485,2939 L 2485,2940 L 2484,2943 L 2503,2947 L 2499,2967 L 2495,2969 L 2467,2980 L 2462,2988 L 2466,2999 L 2466,3000 L 2468,3005 L 2475,3025 L 2476,3029 L 2481,3042 L 2481,3043 L 2483,3048 L 2500,3044 L 2501,3043 L 2507,3042 L 2514,3041 L 2523,3040 L 2533,3040 L 2538,3041 L 2539,3042 L 2544,3043 L 2559,3051 L 2563,3052 L 2567,3055 L 2568,3056 L 2589,3069 L 2591,3070 L 2599,3073 L 2599,3076 L 2593,3079 L 2591,3086 L 2590,3101 L 2590,3106 L 2591,3111 L 2596,3132 L 2597,3134 L 2599,3141 L 2604,3161 L 2608,3176 L 2627,3243 L 2627,3246 L 2634,3268 L 2646,3317 L 2647,3318 L 2649,3325 L 2651,3341 L 2652,3342 L 2652,3348 L 2648,3356 L 2648,3357 L 2640,3376 L 2631,3396 L 2620,3421 L 2615,3432 L 2606,3455 L 2587,3454 L 2585,3454 L 2560,3452 L 2550,3452 L 2552,3446 L 2545,3447 L 2539,3448 L 2537,3449 L 2526,3449 L 2520,3448 L 2517,3447 L 2515,3447 L 2513,3446 L 2506,3445 L 2497,3445 L 2493,3444 L 2492,3444 L 2485,3443 L 2483,3443 L 2480,3442 L 2475,3441 L 2472,3441 L 2469,3440 L 2467,3440 L 2454,3439 L 2453,3438 L 2444,3437 L 2431,3437 L 2431,3438 L 2424,3437 L 2408,3436 L 2388,3435 L 2386,3435 L 2385,3429 L 2384,3420 L 2384,3405 L 2385,3403 L 2385,3399 L 2384,3397 L 2384,3386 L 2383,3365 L 2383,3363 L 2380,3338 L 2380,3336 L 2378,3316 L 2345,3319 L 2320,3320 L 2295,3320 L 2272,3318 L 2263,3317 L 2274,3257 L 2239,3237 L 2230,3231 L 2222,3226 L 2210,3220 L 2202,3214 L 2201,3213 L 2197,3210 L 2189,3206 L 2177,3194 L 2174,3192 L 2168,3187 L 2162,3183 L 2155,3177 L 2149,3172 L 2142,3165 L 2138,3162 L 2135,3159 L 2134,3159 L 2097,3122 L 2078,3102 L 2080,3057 L 2077,3057 L 2077,3056 L 2078,3052 L 2078,3038 L 2077,3033 L 2076,3030 L 2082,3026 L 2084,3025 L 2092,3020 L 2098,3016 L 2114,3008 L 2115,3007 L 2128,3001 L 2129,3000 L 2132,2999 L 2143,2992 L 2143,2991 L 2144,2991 L 2144,2990 L 2158,2984 L 2159,2983 L 2187,2967 L 2189,2966 L 2188,2965 L 2196,2959 L 2198,2958 L 2199,2958 L 2204,2956 L 2206,2954 L 2216,2950 L 2216,2949 L 2217,2949 L 2217,2948 L 2218,2948 L 2218,2947 L 2221,2942 L 2221,2941 L 2222,2940 L 2230,2922 L 2230,2921 L 2244,2891 L 2244,2889 L 2248,2881 L 2249,2880 L 2252,2882 L 2263,2873 L 2270,2868 L 2270,2867 L 2271,2866 L 2273,2865 L 2270,2856 L 2263,2837 L 2258,2825 L 2257,2821 L 2255,2814 L 2251,2804 L 2247,2792 L 2246,2790 L 2243,2781 L 2242,2779 L 2236,2760 L 2232,2748 L 2228,2739 L 2218,2712 L 2216,2707 L 2216,2706 L 2213,2698 L 2213,2697 L 2214,2695 L 2213,2692 L 2212,2693 L 2211,2692 L 2209,2685 L 2205,2674 L 2204,2671 L 2202,2667 L 2203,2666 L 2203,2665 L 2202,2665 L 2202,2664 L 2201,2664 L 2201,2661 L 2199,2657 L 2193,2638 L 2191,2634 L 2188,2624 L 2186,2622 L 2186,2621 L 2185,2619 L 2185,2618 L 2184,2616 L 2183,2611 L 2181,2606 L 2178,2599 L 2176,2595 L 2177,2593 L 2174,2587 L 2174,2586 L 2171,2578 L 2171,2576 L 2169,2569 L 2156,2569 L 2156,2566 L 2155,2565 L 2154,2561 L 2150,2553 L 2147,2552 L 2144,2553 L 2141,2555 L 2137,2556 L 2134,2557 L 2133,2558 L 2125,2556 L 2121,2556 L 2121,2534 L 2116,2534 L 2114,2533 L 2113,2533 L 2111,2531 L 2112,2529 L 2106,2519 L 2093,2501 L 2091,2499 L 2080,2486 L 2079,2485 L 2076,2483 L 2064,2470 L 2062,2467 L 2061,2467 L 2052,2458 L 2051,2447 L 2050,2447 L 2045,2444 L 2038,2440 L 2034,2438 L 2032,2442 L 2025,2451 L 2024,2450 L 2018,2451 L 2016,2452 L 2002,2454 L 1997,2461 L 1997,2462 L 1996,2462 L 1996,2461 L 1988,2457 L 1983,2465 L 1980,2471 L 1977,2469 L 1976,2468 L 1954,2456 L 1953,2455 L 1943,2449 L 1941,2448 L 1931,2442 L 1923,2442 L 1924,2440 L 1924,2422 L 1925,2421 L 1925,2410 L 1928,2407 L 1928,2405 L 1926,2404 L 1926,2400 L 1925,2400 L 1925,2389 L 1926,2388 L 1926,2352 L 1927,2351 L 1927,2325 L 1928,2325 L 1980,2326 L 1985,2326 L 2010,2327 L 2012,2327 L 2012,2323 L 2013,2323 L 2012,2322 L 2013,2322 L 2019,2321 L 2040,2318 L 2040,2310 L 2041,2299 L 2041,2290 L 2040,2289 L 2040,2274 L 2041,2269 L 2041,2232 L 2040,2232 L 2040,2228 L 2041,2223 L 2041,2208 L 2042,2208 L 2041,2204 L 2040,2203 L 2040,2197 L 2039,2194 L 2039,2192 L 2040,2192 L 2040,2190 L 2039,2190 L 2040,2187 L 2040,2182 L 2041,2181 L 2043,2181 L 2044,2178 L 2041,2175 L 2042,2163 L 2042,2161 L 2041,2161 L 2041,2157 L 2042,2145 L 2043,2142 L 2043,2141 L 2044,2140 L 2044,2134 L 2043,2133 L 2042,2121 L 2043,2121 L 2043,2120 L 2042,2120 L 2043,2119 L 2046,2104 L 2047,2104 L 2047,2101 L 2048,2099 L 2054,2081 L 2053,2078 L 2054,2076 L 2053,2075 L 2046,2071 L 2044,2070 L 2041,2067 L 2042,2065 L 2056,2043 L 2059,2039 L 2071,2021 L 2071,2020 L 2072,2020 L 2079,2023 L 2082,2024 L 2090,2027 L 2092,2028 L 2100,2031 L 2103,2032 L 2116,2038 L 2124,2041 L 2130,2044 L 2144,2050 L 2145,2049 L 2150,2051 L 2153,2053 L 2154,2053 L 2166,2057 L 2166,2058 L 2181,2064 L 2183,2064 L 2186,2066 L 2197,2071 L 2200,2073 L 2214,2079 L 2218,2081 L 2227,2083 L 2229,2083 L 2238,2085 L 2240,2086 L 2257,2089 L 2260,2090 L 2262,2088 L 2263,2090 L 2262,2097 L 2256,2105 L 2255,2115 L 2254,2137 L 2255,2143 L 2254,2148 L 2253,2150 L 2257,2151 L 2259,2152 L 2260,2150 L 2272,2155 L 2272,2156 L 2274,2157 L 2275,2157 L 2278,2159 L 2281,2159 L 2283,2160 L 2284,2161 L 2286,2161 L 2291,2163 L 2294,2164 L 2296,2164 L 2299,2165 L 2302,2167 L 2304,2167 L 2305,2168 L 2308,2168 L 2309,2169 L 2308,2171 L 2302,2182 L 2301,2193 L 2297,2194 L 2289,2210 L 2289,2212 L 2293,2213 L 2292,2241 L 2275,2241 L 2275,2243 L 2294,2243 L 2307,2244 L 2375,2244 L 2375,2234 L 2429,2235 L 2429,2256 L 2471,2257 L 2471,2256 L 2479,2243 L 2498,2243 L 2516,2232 L 2519,2231 L 2517,2233 L 2516,2235 L 2515,2238 L 2514,2240 L 2514,2244 L 2513,2246 L 2512,2266 L 2511,2268 L 2511,2277 L 2510,2277 L 2510,2285 L 2509,2288 L 2510,2297 L 2514,2312 L 2513,2319 L 2515,2320 L 2542,2325 L 2542,2322 L 2559,2313 L 2577,2422 L 2580,2446 L 2581,2456 L 2582,2462 L 2612,2457 L 2614,2458 L 2614,2465 L 2615,2470 L 2615,2483 L 2616,2490 L 2618,2492 L 2618,2495 L 2617,2504 L 2617,2505 L 2624,2507 L 2625,2517 L 2613,2515 L 2608,2526 L 2607,2529 L 2623,2538 L 2634,2545 L 2647,2558 L 2639,2559 L 2631,2559 L 2626,2560 L 2622,2559 L 2619,2559 L 2611,2558 L 2610,2559 L 2609,2562 L 2608,2564 L 2602,2578 L 2600,2583 L 2595,2592 L 2592,2599 L 2587,2609 L 2581,2608 z"
       style="fill:#ffb380;stroke:#e00000;stroke-opacity:1;stroke-width:8;stroke-miterlimit:4;stroke-dasharray:none" />
    <path cartogramvalue="3"
       id="Neukoelln"
       d="M 2943,2376 L 2943,2376 L 2941,2372 L 2941,2367 L 2943,2358 L 2946,2344 L 2948,2333 L 2930,2315 L 2884,2261 L 2883,2260 L 2884,2259 L 2873,2247 L 2872,2245 L 2864,2237 L 2863,2235 L 2850,2251 L 2849,2253 L 2833,2239 L 2832,2238 L 2816,2225 L 2811,2220 L 2810,2221 L 2799,2210 L 2799,2211 L 2798,2210 L 2792,2205 L 2791,2204 L 2786,2200 L 2770,2217 L 2769,2216 L 2761,2209 L 2759,2208 L 2754,2203 L 2743,2194 L 2738,2189 L 2737,2192 L 2735,2192 L 2728,2184 L 2709,2174 L 2708,2173 L 2679,2158 L 2662,2149 L 2660,2148 L 2621,2127 L 2616,2125 L 2612,2123 L 2607,2122 L 2610,2127 L 2615,2141 L 2616,2143 L 2620,2154 L 2621,2156 L 2623,2163 L 2624,2165 L 2628,2175 L 2628,2177 L 2632,2185 L 2633,2188 L 2633,2190 L 2640,2207 L 2641,2209 L 2638,2213 L 2631,2225 L 2631,2229 L 2625,2226 L 2612,2220 L 2610,2219 L 2594,2216 L 2573,2211 L 2564,2209 L 2561,2209 L 2559,2208 L 2522,2200 L 2521,2202 L 2521,2204 L 2523,2206 L 2526,2219 L 2519,2231 L 2517,2233 L 2516,2235 L 2515,2238 L 2514,2240 L 2514,2244 L 2513,2246 L 2512,2266 L 2511,2268 L 2511,2277 L 2510,2277 L 2510,2285 L 2509,2288 L 2510,2297 L 2514,2312 L 2513,2319 L 2515,2320 L 2542,2325 L 2542,2322 L 2559,2313 L 2577,2422 L 2580,2446 L 2581,2456 L 2582,2462 L 2612,2457 L 2614,2458 L 2614,2465 L 2615,2470 L 2615,2483 L 2616,2490 L 2618,2492 L 2618,2495 L 2617,2504 L 2617,2505 L 2624,2507 L 2625,2517 L 2613,2515 L 2608,2526 L 2607,2529 L 2623,2538 L 2634,2545 L 2647,2558 L 2639,2559 L 2631,2559 L 2626,2560 L 2622,2559 L 2619,2559 L 2611,2558 L 2610,2559 L 2609,2562 L 2608,2564 L 2602,2578 L 2600,2583 L 2595,2592 L 2592,2599 L 2587,2609 L 2581,2608 L 2578,2617 L 2576,2624 L 2574,2641 L 2569,2650 L 2567,2666 L 2566,2670 L 2562,2677 L 2561,2680 L 2558,2693 L 2558,2694 L 2549,2727 L 2543,2754 L 2542,2757 L 2540,2767 L 2538,2773 L 2537,2778 L 2537,2787 L 2533,2797 L 2529,2808 L 2528,2810 L 2528,2813 L 2527,2817 L 2527,2820 L 2525,2825 L 2517,2844 L 2514,2852 L 2513,2854 L 2512,2857 L 2511,2869 L 2511,2870 L 2508,2883 L 2508,2888 L 2505,2895 L 2504,2899 L 2502,2903 L 2494,2920 L 2491,2927 L 2489,2931 L 2488,2934 L 2488,2933 L 2487,2935 L 2487,2936 L 2485,2939 L 2485,2940 L 2484,2943 L 2503,2947 L 2499,2967 L 2495,2969 L 2467,2980 L 2462,2988 L 2466,2999 L 2466,3000 L 2468,3005 L 2475,3025 L 2476,3029 L 2481,3042 L 2481,3043 L 2483,3048 L 2500,3044 L 2501,3043 L 2507,3042 L 2514,3041 L 2523,3040 L 2533,3040 L 2538,3041 L 2539,3042 L 2544,3043 L 2559,3051 L 2563,3052 L 2567,3055 L 2568,3056 L 2589,3069 L 2591,3070 L 2599,3073 L 2599,3076 L 2607,3074 L 2613,3073 L 2635,3064 L 2647,3060 L 2658,3057 L 2672,3053 L 2672,3054 L 2683,3050 L 2706,3039 L 2729,3029 L 2730,3029 L 2740,3026 L 2743,3024 L 2748,3022 L 2760,3016 L 2785,3005 L 2786,3004 L 2791,3000 L 2792,2999 L 2796,2996 L 2803,2993 L 2819,2985 L 2829,2979 L 2837,2974 L 2838,2973 L 2854,2967 L 2859,2965 L 2867,2962 L 2868,2962 L 2878,2960 L 2881,2959 L 2897,2956 L 2898,2956 L 2910,2960 L 2917,2963 L 2929,2967 L 2929,2969 L 2931,2977 L 2931,2979 L 2934,2987 L 2934,2989 L 2943,3017 L 2945,3023 L 2950,3036 L 2957,3054 L 2958,3058 L 2962,3068 L 2963,3073 L 2966,3082 L 2969,3090 L 2970,3092 L 2970,3094 L 2982,3123 L 2985,3134 L 2989,3144 L 2993,3151 L 2993,3152 L 2994,3153 L 2994,3154 L 2993,3157 L 2993,3160 L 2994,3161 L 2997,3174 L 3000,3182 L 3002,3190 L 3004,3206 L 3008,3236 L 3016,3232 L 3034,3225 L 3054,3219 L 3056,3219 L 3068,3217 L 3070,3217 L 3078,3216 L 3081,3216 L 3097,3211 L 3107,3208 L 3112,3207 L 3128,3204 L 3129,3204 L 3135,3202 L 3151,3198 L 3152,3198 L 3168,3195 L 3186,3192 L 3200,3188 L 3239,3177 L 3255,3171 L 3255,3167 L 3261,3159 L 3259,3154 L 3277,3136 L 3275,3134 L 3286,3122 L 3287,3121 L 3286,3120 L 3289,3116 L 3291,3113 L 3294,3109 L 3294,3108 L 3295,3104 L 3297,3100 L 3297,3098 L 3298,3096 L 3303,3076 L 3304,3071 L 3302,3068 L 3306,3061 L 3302,3056 L 3305,3053 L 3304,3050 L 3306,3045 L 3310,3040 L 3309,3039 L 3300,3033 L 3300,3032 L 3297,3030 L 3302,3019 L 3301,3016 L 3299,3011 L 3297,3003 L 3296,2998 L 3297,2986 L 3288,2974 L 3286,2959 L 3283,2957 L 3281,2953 L 3279,2952 L 3273,2943 L 3272,2940 L 3272,2936 L 3274,2930 L 3277,2924 L 3280,2917 L 3279,2916 L 3284,2905 L 3286,2900 L 3286,2896 L 3282,2894 L 3281,2893 L 3279,2893 L 3265,2892 L 3257,2891 L 3252,2890 L 3250,2890 L 3246,2889 L 3243,2888 L 3233,2885 L 3229,2884 L 3227,2883 L 3223,2882 L 3220,2881 L 3216,2879 L 3211,2877 L 3208,2875 L 3205,2874 L 3199,2870 L 3197,2869 L 3193,2866 L 3190,2864 L 3188,2862 L 3146,2829 L 3136,2821 L 3135,2821 L 3133,2820 L 3132,2820 L 3130,2818 L 3127,2814 L 3112,2802 L 3109,2801 L 3090,2786 L 3074,2773 L 3073,2771 L 3059,2760 L 3049,2752 L 3043,2746 L 3039,2745 L 3004,2717 L 3001,2714 L 3000,2714 L 3000,2713 L 2999,2712 L 2999,2711 L 2998,2711 L 2988,2703 L 2987,2702 L 2985,2702 L 2984,2701 L 2925,2654 L 2917,2647 L 2913,2644 L 2903,2634 L 2900,2630 L 2899,2628 L 2897,2626 L 2896,2623 L 2895,2621 L 2894,2620 L 2893,2620 L 2893,2618 L 2892,2617 L 2892,2616 L 2889,2609 L 2887,2605 L 2887,2604 L 2886,2604 L 2884,2600 L 2877,2584 L 2868,2561 L 2858,2541 L 2857,2537 L 2856,2536 L 2855,2532 L 2855,2531 L 2861,2531 L 2880,2532 L 2895,2533 L 2909,2533 L 2955,2535 L 2958,2535 L 2976,2537 L 2976,2532 L 2980,2520 L 2982,2513 L 2991,2501 L 2993,2498 L 3001,2479 L 3001,2466 L 3000,2465 L 2987,2444 L 2985,2442 L 2981,2437 L 2978,2434 L 2977,2432 L 2968,2418 L 2963,2410 L 2963,2409 L 2961,2408 L 2961,2407 L 2957,2399 L 2947,2384 L 2944,2379 L 2944,2378 L 2943,2377 L 2943,2376 z"
       style="fill:#ffb380;stroke:#e00000;stroke-opacity:1;stroke-width:8;stroke-miterlimit:4;stroke-dasharray:none" />
    <path cartogramvalue="3"
       id="Treptow-Koepenick"
       d="M 2943,2376 L 2943,2376 L 2941,2372 L 2941,2367 L 2943,2358 L 2946,2344 L 2948,2333 L 2930,2315 L 2884,2261 L 2883,2260 L 2884,2259 L 2873,2247 L 2872,2245 L 2864,2237 L 2863,2235 L 2850,2251 L 2849,2253 L 2833,2239 L 2832,2238 L 2816,2225 L 2811,2220 L 2810,2221 L 2799,2210 L 2799,2211 L 2798,2210 L 2792,2205 L 2791,2204 L 2786,2200 L 2770,2217 L 2769,2216 L 2761,2209 L 2759,2208 L 2754,2203 L 2743,2194 L 2738,2189 L 2738,2184 L 2742,2178 L 2743,2177 L 2745,2176 L 2757,2161 L 2771,2143 L 2775,2139 L 2775,2138 L 2776,2138 L 2777,2137 L 2778,2137 L 2779,2136 L 2784,2136 L 2785,2137 L 2791,2137 L 2792,2136 L 2793,2136 L 2793,2135 L 2808,2117 L 2816,2109 L 2819,2107 L 2822,2106 L 2824,2106 L 2827,2105 L 2836,2105 L 2845,2108 L 2872,2116 L 2875,2118 L 2889,2127 L 2891,2127 L 2895,2129 L 2898,2129 L 2901,2131 L 2901,2132 L 2900,2134 L 2898,2137 L 2897,2138 L 2898,2142 L 2905,2147 L 2923,2159 L 2934,2163 L 2951,2172 L 2969,2177 L 2981,2186 L 2986,2190 L 2992,2197 L 2996,2203 L 2997,2210 L 2998,2212 L 2998,2213 L 2999,2215 L 3002,2222 L 3005,2215 L 3006,2213 L 3008,2212 L 3014,2212 L 3023,2215 L 3026,2218 L 3026,2219 L 3032,2233 L 3040,2227 L 3043,2224 L 3052,2218 L 3057,2215 L 3069,2213 L 3074,2214 L 3083,2217 L 3084,2217 L 3085,2218 L 3086,2218 L 3086,2219 L 3087,2219 L 3097,2234 L 3098,2235 L 3098,2236 L 3099,2237 L 3099,2238 L 3104,2249 L 3106,2257 L 3108,2266 L 3125,2264 L 3135,2264 L 3136,2265 L 3137,2265 L 3139,2266 L 3144,2268 L 3146,2269 L 3155,2271 L 3157,2272 L 3160,2272 L 3162,2280 L 3168,2299 L 3169,2300 L 3176,2321 L 3177,2322 L 3189,2339 L 3200,2356 L 3200,2357 L 3201,2357 L 3225,2351 L 3226,2351 L 3232,2350 L 3235,2349 L 3237,2349 L 3240,2348 L 3244,2348 L 3246,2349 L 3250,2349 L 3253,2350 L 3254,2350 L 3262,2354 L 3265,2355 L 3284,2366 L 3285,2367 L 3287,2367 L 3287,2366 L 3288,2365 L 3291,2360 L 3294,2354 L 3300,2359 L 3308,2368 L 3322,2387 L 3333,2403 L 3338,2411 L 3356,2435 L 3358,2433 L 3359,2431 L 3360,2431 L 3367,2422 L 3379,2407 L 3390,2393 L 3395,2386 L 3409,2368 L 3412,2365 L 3416,2360 L 3416,2359 L 3418,2357 L 3423,2360 L 3424,2361 L 3434,2368 L 3435,2368 L 3439,2369 L 3464,2373 L 3466,2374 L 3475,2375 L 3476,2376 L 3476,2374 L 3474,2370 L 3474,2369 L 3481,2369 L 3490,2371 L 3498,2372 L 3521,2372 L 3529,2373 L 3537,2376 L 3561,2376 L 3568,2375 L 3576,2374 L 3583,2371 L 3589,2369 L 3590,2368 L 3591,2370 L 3592,2370 L 3593,2372 L 3594,2372 L 3599,2371 L 3600,2371 L 3600,2370 L 3603,2369 L 3604,2369 L 3604,2368 L 3607,2362 L 3618,2355 L 3620,2355 L 3625,2351 L 3626,2350 L 3636,2344 L 3636,2343 L 3637,2343 L 3646,2337 L 3648,2340 L 3649,2340 L 3650,2339 L 3650,2338 L 3649,2336 L 3649,2334 L 3651,2332 L 3653,2328 L 3654,2324 L 3655,2319 L 3657,2308 L 3658,2307 L 3662,2304 L 3676,2297 L 3677,2297 L 3679,2295 L 3689,2290 L 3697,2296 L 3698,2297 L 3704,2302 L 3713,2298 L 3715,2297 L 3733,2289 L 3735,2289 L 3736,2290 L 3741,2294 L 3742,2295 L 3751,2302 L 3769,2317 L 3775,2321 L 3784,2329 L 3786,2331 L 3794,2337 L 3795,2337 L 3803,2344 L 3811,2352 L 3814,2354 L 3824,2364 L 3824,2363 L 3827,2365 L 3838,2374 L 3840,2375 L 3848,2381 L 3854,2381 L 3860,2380 L 3869,2380 L 3879,2381 L 3884,2381 L 3884,2383 L 3882,2400 L 3884,2401 L 3904,2407 L 3905,2406 L 3909,2407 L 3910,2407 L 3919,2410 L 3929,2416 L 3943,2399 L 3947,2401 L 3971,2408 L 3971,2410 L 3970,2410 L 3970,2429 L 3976,2429 L 3976,2446 L 3972,2450 L 3981,2452 L 3983,2452 L 3985,2448 L 3983,2444 L 3983,2441 L 3981,2437 L 3983,2436 L 3981,2434 L 3982,2431 L 3982,2426 L 3998,2427 L 3997,2425 L 3995,2423 L 3995,2410 L 3997,2373 L 4018,2373 L 4024,2369 L 4031,2362 L 4038,2357 L 4072,2344 L 4095,2329 L 4106,2322 L 4116,2316 L 4120,2310 L 4122,2310 L 4132,2313 L 4136,2314 L 4148,2314 L 4150,2315 L 4155,2315 L 4165,2320 L 4174,2325 L 4182,2329 L 4189,2332 L 4194,2334 L 4203,2339 L 4208,2342 L 4223,2357 L 4245,2368 L 4250,2370 L 4253,2371 L 4260,2372 L 4264,2371 L 4266,2370 L 4273,2369 L 4283,2365 L 4284,2365 L 4284,2370 L 4286,2371 L 4296,2374 L 4298,2376 L 4303,2378 L 4313,2387 L 4320,2392 L 4325,2397 L 4338,2405 L 4346,2412 L 4361,2421 L 4362,2423 L 4363,2424 L 4372,2436 L 4376,2442 L 4377,2442 L 4389,2456 L 4415,2466 L 4427,2468 L 4437,2468 L 4445,2471 L 4455,2473 L 4466,2474 L 4474,2477 L 4475,2477 L 4475,2479 L 4477,2479 L 4477,2481 L 4482,2494 L 4484,2497 L 4487,2504 L 4490,2518 L 4490,2524 L 4491,2540 L 4491,2541 L 4496,2554 L 4497,2563 L 4496,2573 L 4495,2576 L 4508,2579 L 4516,2581 L 4528,2581 L 4538,2582 L 4542,2572 L 4544,2558 L 4544,2554 L 4545,2549 L 4543,2529 L 4542,2527 L 4542,2525 L 4535,2524 L 4529,2523 L 4528,2519 L 4527,2510 L 4525,2498 L 4525,2492 L 4524,2487 L 4522,2481 L 4521,2475 L 4518,2469 L 4510,2454 L 4500,2431 L 4515,2432 L 4519,2440 L 4523,2443 L 4531,2451 L 4539,2457 L 4545,2462 L 4551,2466 L 4560,2471 L 4584,2486 L 4585,2487 L 4597,2490 L 4607,2490 L 4615,2491 L 4616,2496 L 4626,2518 L 4627,2519 L 4633,2532 L 4639,2543 L 4639,2545 L 4646,2560 L 4659,2574 L 4659,2575 L 4704,2626 L 4720,2629 L 4722,2630 L 4729,2631 L 4734,2628 L 4740,2626 L 4743,2627 L 4748,2628 L 4749,2632 L 4755,2635 L 4760,2637 L 4763,2639 L 4764,2639 L 4784,2642 L 4790,2644 L 4795,2645 L 4801,2646 L 4811,2643 L 4816,2644 L 4822,2646 L 4824,2647 L 4825,2647 L 4836,2648 L 4841,2649 L 4843,2650 L 4846,2652 L 4848,2653 L 4864,2658 L 4869,2660 L 4873,2663 L 4881,2673 L 4883,2679 L 4887,2678 L 4890,2677 L 4888,2682 L 4876,2709 L 4878,2710 L 4880,2710 L 4893,2712 L 4895,2713 L 4893,2718 L 4884,2759 L 4883,2763 L 4898,2765 L 4921,2769 L 4922,2771 L 4921,2775 L 4920,2778 L 4915,2787 L 4915,2788 L 4878,2783 L 4877,2782 L 4881,2764 L 4881,2763 L 4882,2760 L 4890,2727 L 4850,2729 L 4816,2759 L 4807,2767 L 4806,2767 L 4803,2788 L 4803,2789 L 4801,2805 L 4799,2824 L 4798,2824 L 4791,2823 L 4790,2824 L 4782,2823 L 4767,2821 L 4767,2824 L 4760,2823 L 4752,2822 L 4745,2821 L 4739,2819 L 4732,2818 L 4720,2815 L 4704,2807 L 4695,2802 L 4681,2792 L 4673,2785 L 4671,2787 L 4680,2795 L 4686,2800 L 4691,2803 L 4702,2809 L 4706,2812 L 4709,2813 L 4715,2816 L 4718,2817 L 4723,2818 L 4730,2820 L 4735,2822 L 4741,2823 L 4746,2824 L 4757,2825 L 4758,2826 L 4780,2829 L 4775,2863 L 4772,2870 L 4788,2876 L 4791,2877 L 4790,2879 L 4788,2893 L 4784,2897 L 4776,2894 L 4775,2897 L 4766,2894 L 4763,2894 L 4761,2896 L 4720,2962 L 4719,2963 L 4718,2963 L 4718,2964 L 4719,2964 L 4719,2966 L 4720,2967 L 4720,2969 L 4721,2970 L 4721,2977 L 4719,2981 L 4716,2989 L 4717,2989 L 4715,2991 L 4714,2993 L 4712,3000 L 4712,3001 L 4710,3009 L 4710,3015 L 4713,3020 L 4715,3024 L 4718,3029 L 4724,3037 L 4735,3056 L 4738,3065 L 4739,3071 L 4741,3074 L 4743,3075 L 4750,3078 L 4754,3080 L 4757,3082 L 4758,3083 L 4759,3085 L 4763,3097 L 4767,3102 L 4767,3104 L 4770,3110 L 4764,3116 L 4749,3123 L 4748,3124 L 4744,3134 L 4744,3135 L 4742,3143 L 4741,3144 L 4740,3147 L 4739,3152 L 4739,3156 L 4740,3161 L 4740,3165 L 4741,3167 L 4741,3168 L 4739,3167 L 4738,3169 L 4738,3170 L 4735,3171 L 4734,3171 L 4733,3172 L 4734,3173 L 4732,3177 L 4727,3182 L 4723,3185 L 4722,3189 L 4713,3195 L 4711,3195 L 4710,3194 L 4708,3193 L 4708,3189 L 4707,3189 L 4706,3190 L 4704,3190 L 4705,3192 L 4705,3193 L 4704,3193 L 4703,3194 L 4702,3193 L 4699,3192 L 4697,3191 L 4695,3189 L 4695,3188 L 4694,3189 L 4693,3189 L 4693,3192 L 4691,3193 L 4684,3196 L 4682,3196 L 4680,3194 L 4677,3200 L 4677,3201 L 4675,3204 L 4673,3204 L 4672,3206 L 4670,3206 L 4668,3207 L 4666,3210 L 4663,3210 L 4662,3211 L 4643,3202 L 4640,3204 L 4639,3204 L 4635,3205 L 4633,3205 L 4627,3203 L 4626,3202 L 4623,3196 L 4621,3194 L 4615,3195 L 4610,3199 L 4605,3201 L 4603,3203 L 4602,3205 L 4603,3206 L 4601,3210 L 4601,3211 L 4600,3213 L 4598,3215 L 4595,3216 L 4593,3216 L 4589,3219 L 4588,3220 L 4588,3221 L 4585,3223 L 4579,3231 L 4576,3234 L 4573,3232 L 4570,3238 L 4570,3240 L 4566,3243 L 4563,3244 L 4561,3245 L 4556,3245 L 4552,3246 L 4544,3258 L 4538,3264 L 4531,3266 L 4528,3266 L 4525,3265 L 4524,3265 L 4519,3270 L 4518,3274 L 4516,3276 L 4515,3278 L 4514,3281 L 4512,3284 L 4510,3286 L 4508,3290 L 4507,3291 L 4505,3292 L 4504,3293 L 4502,3294 L 4499,3296 L 4497,3295 L 4497,3294 L 4496,3292 L 4497,3290 L 4498,3287 L 4499,3287 L 4501,3283 L 4501,3282 L 4499,3282 L 4496,3283 L 4494,3286 L 4494,3287 L 4492,3289 L 4492,3291 L 4493,3292 L 4492,3295 L 4491,3297 L 4491,3303 L 4489,3305 L 4486,3306 L 4482,3311 L 4480,3314 L 4476,3315 L 4472,3321 L 4469,3325 L 4461,3333 L 4460,3335 L 4459,3336 L 4459,3337 L 4458,3337 L 4458,3338 L 4456,3340 L 4455,3340 L 4455,3341 L 4451,3345 L 4449,3348 L 4446,3351 L 4445,3351 L 4444,3352 L 4440,3355 L 4437,3355 L 4433,3359 L 4431,3354 L 4430,3352 L 4429,3351 L 4428,3349 L 4427,3349 L 4425,3345 L 4425,3346 L 4423,3353 L 4423,3356 L 4417,3355 L 4416,3358 L 4416,3361 L 4413,3369 L 4413,3370 L 4416,3371 L 4419,3371 L 4421,3377 L 4425,3381 L 4437,3378 L 4461,3394 L 4469,3400 L 4474,3403 L 4488,3400 L 4496,3397 L 4499,3397 L 4499,3401 L 4497,3406 L 4495,3412 L 4495,3415 L 4490,3435 L 4488,3442 L 4503,3439 L 4504,3441 L 4510,3442 L 4512,3445 L 4507,3463 L 4502,3470 L 4502,3473 L 4500,3475 L 4500,3476 L 4499,3479 L 4497,3481 L 4496,3484 L 4494,3487 L 4489,3491 L 4487,3498 L 4486,3498 L 4484,3501 L 4483,3502 L 4480,3508 L 4478,3510 L 4474,3517 L 4472,3519 L 4470,3522 L 4466,3526 L 4465,3528 L 4461,3530 L 4458,3536 L 4458,3537 L 4457,3538 L 4458,3542 L 4459,3544 L 4460,3548 L 4453,3548 L 4452,3549 L 4450,3550 L 4450,3553 L 4454,3555 L 4455,3556 L 4452,3556 L 4450,3555 L 4449,3555 L 4449,3554 L 4443,3550 L 4441,3550 L 4439,3549 L 4437,3550 L 4435,3549 L 4436,3551 L 4434,3553 L 4432,3554 L 4427,3555 L 4421,3555 L 4417,3550 L 4408,3542 L 4405,3539 L 4397,3535 L 4391,3531 L 4389,3530 L 4386,3529 L 4381,3530 L 4378,3531 L 4376,3531 L 4372,3532 L 4368,3532 L 4367,3531 L 4366,3531 L 4365,3532 L 4363,3533 L 4360,3534 L 4357,3538 L 4355,3540 L 4354,3540 L 4348,3546 L 4339,3552 L 4338,3553 L 4336,3554 L 4330,3556 L 4328,3557 L 4322,3559 L 4320,3560 L 4318,3560 L 4316,3561 L 4315,3561 L 4313,3563 L 4312,3565 L 4311,3566 L 4310,3566 L 4309,3567 L 4308,3569 L 4308,3571 L 4307,3574 L 4306,3578 L 4304,3582 L 4304,3583 L 4303,3584 L 4300,3585 L 4299,3585 L 4299,3586 L 4298,3586 L 4296,3587 L 4291,3592 L 4287,3600 L 4284,3603 L 4283,3605 L 4282,3608 L 4281,3610 L 4280,3610 L 4279,3615 L 4278,3618 L 4278,3626 L 4277,3629 L 4276,3631 L 4276,3634 L 4275,3636 L 4274,3639 L 4274,3642 L 4275,3647 L 4276,3653 L 4277,3657 L 4269,3657 L 4267,3659 L 4266,3659 L 4264,3660 L 4263,3661 L 4258,3668 L 4257,3669 L 4257,3670 L 4256,3672 L 4255,3673 L 4255,3675 L 4252,3681 L 4251,3685 L 4251,3689 L 4253,3691 L 4250,3695 L 4249,3696 L 4249,3698 L 4248,3700 L 4248,3701 L 4247,3703 L 4244,3705 L 4241,3706 L 4238,3708 L 4236,3709 L 4235,3709 L 4233,3711 L 4229,3716 L 4229,3719 L 4228,3722 L 4226,3723 L 4225,3724 L 4223,3725 L 4222,3725 L 4220,3726 L 4217,3727 L 4215,3731 L 4215,3734 L 4213,3742 L 4213,3743 L 4212,3751 L 4213,3752 L 4212,3757 L 4208,3765 L 4208,3769 L 4209,3771 L 4209,3772 L 4207,3776 L 4205,3778 L 4203,3781 L 4202,3783 L 4195,3790 L 4193,3793 L 4189,3797 L 4188,3800 L 4187,3804 L 4184,3810 L 4183,3816 L 4177,3826 L 4175,3830 L 4175,3831 L 4179,3865 L 4173,3871 L 4171,3872 L 4168,3873 L 4159,3878 L 4158,3877 L 4156,3878 L 4151,3879 L 4149,3878 L 4139,3874 L 4136,3873 L 4135,3869 L 4131,3863 L 4130,3860 L 4118,3860 L 4105,3839 L 4090,3824 L 4079,3806 L 4078,3802 L 4074,3783 L 4076,3769 L 4084,3768 L 4085,3720 L 4086,3669 L 4087,3667 L 4087,3662 L 4089,3657 L 4090,3651 L 4088,3646 L 4088,3640 L 4092,3630 L 4092,3626 L 4098,3618 L 4100,3615 L 4106,3603 L 4124,3589 L 4131,3583 L 4140,3578 L 4146,3569 L 4148,3559 L 4148,3547 L 4145,3537 L 4145,3524 L 4123,3520 L 4114,3517 L 4113,3516 L 4118,3497 L 4118,3480 L 4117,3442 L 4053,3456 L 4044,3440 L 4042,3437 L 4020,3399 L 4014,3403 L 4007,3406 L 4003,3409 L 4002,3410 L 3999,3411 L 3998,3412 L 3988,3418 L 3982,3421 L 3911,3461 L 3909,3462 L 3889,3474 L 3877,3481 L 3866,3485 L 3866,3484 L 3869,3475 L 3872,3469 L 3872,3465 L 3873,3458 L 3871,3450 L 3864,3437 L 3869,3429 L 3870,3424 L 3870,3423 L 3867,3417 L 3864,3410 L 3863,3409 L 3859,3403 L 3856,3399 L 3852,3396 L 3852,3395 L 3850,3392 L 3848,3387 L 3847,3382 L 3840,3375 L 3839,3373 L 3836,3370 L 3833,3369 L 3830,3366 L 3829,3364 L 3825,3359 L 3823,3355 L 3822,3354 L 3820,3354 L 3815,3353 L 3808,3350 L 3800,3348 L 3792,3334 L 3792,3330 L 3794,3323 L 3794,3317 L 3793,3315 L 3792,3314 L 3790,3314 L 3788,3315 L 3786,3308 L 3784,3306 L 3783,3303 L 3783,3297 L 3784,3297 L 3785,3293 L 3785,3285 L 3787,3279 L 3786,3275 L 3786,3274 L 3780,3265 L 3779,3263 L 3778,3262 L 3777,3260 L 3770,3263 L 3762,3265 L 3744,3275 L 3726,3281 L 3716,3285 L 3710,3287 L 3705,3288 L 3702,3289 L 3680,3295 L 3661,3300 L 3652,3301 L 3627,3310 L 3626,3311 L 3609,3316 L 3593,3320 L 3584,3323 L 3558,3323 L 3547,3322 L 3543,3322 L 3525,3321 L 3517,3321 L 3513,3320 L 3497,3319 L 3471,3318 L 3455,3317 L 3448,3316 L 3387,3314 L 3383,3293 L 3383,3283 L 3385,3264 L 3387,3257 L 3388,3246 L 3389,3244 L 3392,3232 L 3393,3231 L 3394,3226 L 3395,3224 L 3396,3221 L 3394,3216 L 3394,3215 L 3397,3214 L 3399,3207 L 3400,3205 L 3400,3204 L 3405,3193 L 3406,3191 L 3407,3184 L 3405,3186 L 3399,3190 L 3397,3192 L 3394,3194 L 3389,3197 L 3384,3199 L 3375,3203 L 3370,3207 L 3369,3207 L 3361,3212 L 3358,3215 L 3353,3217 L 3348,3221 L 3345,3218 L 3343,3217 L 3338,3213 L 3334,3210 L 3332,3208 L 3325,3203 L 3321,3201 L 3313,3198 L 3308,3194 L 3304,3192 L 3301,3190 L 3297,3187 L 3294,3185 L 3289,3183 L 3288,3183 L 3273,3179 L 3263,3174 L 3255,3171 L 3255,3167 L 3261,3159 L 3259,3154 L 3277,3136 L 3275,3134 L 3286,3122 L 3287,3121 L 3286,3120 L 3289,3116 L 3291,3113 L 3294,3109 L 3294,3108 L 3295,3104 L 3297,3100 L 3297,3098 L 3298,3096 L 3303,3076 L 3304,3071 L 3302,3068 L 3306,3061 L 3302,3056 L 3305,3053 L 3304,3050 L 3306,3045 L 3310,3040 L 3309,3039 L 3300,3033 L 3300,3032 L 3297,3030 L 3302,3019 L 3301,3016 L 3299,3011 L 3297,3003 L 3296,2998 L 3297,2986 L 3288,2974 L 3286,2959 L 3283,2957 L 3281,2953 L 3279,2952 L 3273,2943 L 3272,2940 L 3272,2936 L 3274,2930 L 3277,2924 L 3280,2917 L 3279,2916 L 3284,2905 L 3286,2900 L 3286,2896 L 3282,2894 L 3281,2893 L 3279,2893 L 3265,2892 L 3257,2891 L 3252,2890 L 3250,2890 L 3246,2889 L 3243,2888 L 3233,2885 L 3229,2884 L 3227,2883 L 3223,2882 L 3220,2881 L 3216,2879 L 3211,2877 L 3208,2875 L 3205,2874 L 3199,2870 L 3197,2869 L 3193,2866 L 3190,2864 L 3188,2862 L 3146,2829 L 3136,2821 L 3135,2821 L 3133,2820 L 3132,2820 L 3130,2818 L 3127,2814 L 3112,2802 L 3109,2801 L 3090,2786 L 3074,2773 L 3073,2771 L 3059,2760 L 3049,2752 L 3043,2746 L 3039,2745 L 3004,2717 L 3001,2714 L 3000,2714 L 3000,2713 L 2999,2712 L 2999,2711 L 2998,2711 L 2988,2703 L 2987,2702 L 2985,2702 L 2984,2701 L 2925,2654 L 2917,2647 L 2913,2644 L 2903,2634 L 2900,2630 L 2899,2628 L 2897,2626 L 2896,2623 L 2895,2621 L 2894,2620 L 2893,2620 L 2893,2618 L 2892,2617 L 2892,2616 L 2889,2609 L 2887,2605 L 2887,2604 L 2886,2604 L 2884,2600 L 2877,2584 L 2868,2561 L 2858,2541 L 2857,2537 L 2856,2536 L 2855,2532 L 2855,2531 L 2861,2531 L 2880,2532 L 2895,2533 L 2909,2533 L 2955,2535 L 2958,2535 L 2976,2537 L 2976,2532 L 2980,2520 L 2982,2513 L 2991,2501 L 2993,2498 L 3001,2479 L 3001,2466 L 3000,2465 L 2987,2444 L 2985,2442 L 2981,2437 L 2978,2434 L 2977,2432 L 2968,2418 L 2963,2410 L 2963,2409 L 2961,2408 L 2961,2407 L 2957,2399 L 2947,2384 L 2944,2379 L 2944,2378 L 2943,2377 L 2943,2376 z"
       style="fill:#ffccaa;stroke:#e00000;stroke-opacity:1;stroke-width:8;stroke-miterlimit:4;stroke-dasharray:none" />
    <path cartogramvalue="3"
       id="Marzahn-Hellersdorf"
       d="M 4063,1653 L 4063,1653 L 4062,1656 L 4061,1656 L 4061,1655 L 4060,1655 L 4059,1658 L 4058,1658 L 4053,1657 L 4048,1657 L 4043,1655 L 4038,1657 L 4036,1660 L 4024,1656 L 4022,1658 L 4019,1660 L 4017,1661 L 4007,1659 L 3999,1657 L 3996,1656 L 4002,1697 L 3999,1700 L 3995,1703 L 3995,1705 L 3997,1718 L 3997,1720 L 3999,1729 L 4000,1734 L 4000,1735 L 4002,1743 L 4003,1741 L 4009,1743 L 4011,1743 L 4035,1739 L 4037,1739 L 4041,1738 L 4050,1739 L 4076,1739 L 4087,1740 L 4103,1740 L 4110,1741 L 4116,1744 L 4119,1744 L 4124,1746 L 4132,1747 L 4135,1747 L 4141,1748 L 4146,1748 L 4156,1749 L 4163,1748 L 4164,1748 L 4173,1747 L 4213,1746 L 4214,1753 L 4215,1758 L 4218,1770 L 4221,1779 L 4221,1784 L 4222,1786 L 4224,1788 L 4224,1790 L 4213,1801 L 4205,1808 L 4204,1810 L 4202,1811 L 4202,1812 L 4201,1812 L 4179,1827 L 4177,1828 L 4158,1841 L 4157,1842 L 4147,1848 L 4146,1849 L 4127,1863 L 4126,1864 L 4115,1872 L 4108,1879 L 4099,1889 L 4096,1893 L 4079,1910 L 4074,1916 L 4070,1921 L 4069,1921 L 4067,1924 L 4066,1926 L 4059,1936 L 4051,1949 L 4051,1950 L 4045,1964 L 4043,1968 L 4042,1969 L 4033,1991 L 4032,1993 L 4027,2004 L 4025,2010 L 4023,2017 L 4022,2021 L 4020,2032 L 4018,2039 L 4018,2041 L 4017,2042 L 4015,2057 L 4012,2073 L 4011,2080 L 4010,2082 L 4009,2089 L 4006,2100 L 4002,2111 L 4000,2117 L 3993,2134 L 3992,2138 L 3990,2143 L 3990,2144 L 4002,2150 L 4009,2152 L 4029,2156 L 4028,2158 L 4023,2164 L 4018,2171 L 4017,2172 L 4011,2180 L 4001,2194 L 3998,2197 L 3998,2198 L 3984,2217 L 3983,2218 L 3966,2241 L 3965,2242 L 3952,2260 L 3951,2261 L 3938,2279 L 3929,2292 L 3928,2293 L 3923,2326 L 3922,2328 L 3920,2342 L 3920,2343 L 3919,2350 L 3927,2352 L 3928,2353 L 3932,2354 L 3934,2355 L 3935,2356 L 3939,2359 L 3937,2361 L 3936,2363 L 3925,2377 L 3925,2378 L 3917,2388 L 3916,2389 L 3910,2397 L 3909,2398 L 3904,2405 L 3905,2406 L 3904,2407 L 3884,2401 L 3882,2400 L 3884,2383 L 3884,2381 L 3879,2381 L 3869,2380 L 3860,2380 L 3854,2381 L 3848,2381 L 3840,2375 L 3838,2374 L 3827,2365 L 3824,2363 L 3824,2364 L 3814,2354 L 3811,2352 L 3803,2344 L 3795,2337 L 3794,2337 L 3786,2331 L 3784,2329 L 3775,2321 L 3769,2317 L 3751,2302 L 3742,2295 L 3741,2294 L 3736,2290 L 3735,2289 L 3733,2289 L 3715,2297 L 3713,2298 L 3704,2302 L 3698,2297 L 3697,2296 L 3689,2290 L 3679,2295 L 3677,2297 L 3676,2297 L 3662,2304 L 3658,2307 L 3657,2308 L 3655,2319 L 3654,2324 L 3653,2328 L 3651,2332 L 3649,2334 L 3649,2336 L 3650,2338 L 3650,2339 L 3649,2340 L 3648,2340 L 3646,2337 L 3637,2343 L 3636,2343 L 3636,2344 L 3626,2350 L 3625,2351 L 3620,2355 L 3618,2355 L 3607,2362 L 3604,2368 L 3604,2369 L 3603,2369 L 3600,2370 L 3600,2371 L 3599,2371 L 3594,2372 L 3593,2372 L 3592,2370 L 3591,2370 L 3590,2368 L 3589,2369 L 3583,2371 L 3576,2374 L 3568,2375 L 3561,2376 L 3537,2376 L 3529,2373 L 3521,2372 L 3505,2372 L 3501,2371 L 3496,2348 L 3493,2334 L 3485,2320 L 3477,2304 L 3473,2303 L 3473,2273 L 3475,2273 L 3481,2259 L 3486,2252 L 3488,2245 L 3489,2243 L 3488,2239 L 3486,2235 L 3474,2203 L 3462,2170 L 3454,2157 L 3452,2154 L 3452,2151 L 3449,2128 L 3446,2126 L 3445,2124 L 3446,2122 L 3447,2121 L 3442,2112 L 3434,2098 L 3433,2098 L 3431,2097 L 3426,2096 L 3417,2095 L 3416,2095 L 3416,2094 L 3411,2079 L 3403,2057 L 3396,2040 L 3387,2017 L 3392,2011 L 3394,2007 L 3393,1990 L 3395,1989 L 3394,1977 L 3394,1967 L 3402,1968 L 3405,1968 L 3405,1954 L 3404,1951 L 3404,1947 L 3403,1945 L 3402,1944 L 3400,1940 L 3395,1935 L 3389,1931 L 3387,1929 L 3385,1929 L 3382,1928 L 3377,1927 L 3374,1926 L 3370,1927 L 3353,1927 L 3353,1925 L 3325,1925 L 3316,1924 L 3315,1924 L 3309,1923 L 3304,1923 L 3300,1924 L 3287,1924 L 3287,1925 L 3284,1925 L 3284,1923 L 3274,1923 L 3274,1916 L 3275,1917 L 3276,1895 L 3276,1894 L 3277,1879 L 3277,1878 L 3278,1863 L 3279,1846 L 3279,1830 L 3280,1817 L 3280,1815 L 3279,1800 L 3279,1781 L 3278,1776 L 3277,1759 L 3277,1757 L 3276,1733 L 3276,1728 L 3275,1719 L 3275,1711 L 3274,1706 L 3273,1703 L 3263,1683 L 3262,1682 L 3264,1681 L 3267,1681 L 3272,1680 L 3276,1679 L 3279,1679 L 3281,1680 L 3287,1679 L 3289,1679 L 3291,1678 L 3292,1678 L 3296,1677 L 3298,1677 L 3300,1676 L 3304,1675 L 3307,1674 L 3311,1672 L 3326,1664 L 3329,1662 L 3332,1661 L 3340,1657 L 3344,1656 L 3349,1654 L 3353,1653 L 3359,1650 L 3362,1648 L 3362,1646 L 3364,1646 L 3363,1643 L 3364,1643 L 3368,1642 L 3364,1638 L 3356,1603 L 3356,1601 L 3355,1594 L 3353,1587 L 3352,1584 L 3350,1573 L 3350,1572 L 3347,1560 L 3345,1549 L 3344,1548 L 3344,1547 L 3338,1520 L 3338,1519 L 3337,1513 L 3336,1511 L 3336,1510 L 3335,1505 L 3334,1501 L 3334,1500 L 3333,1498 L 3333,1496 L 3331,1491 L 3331,1489 L 3327,1477 L 3323,1467 L 3321,1463 L 3322,1462 L 3322,1461 L 3324,1459 L 3329,1455 L 3334,1450 L 3340,1446 L 3360,1426 L 3361,1424 L 3369,1417 L 3371,1414 L 3376,1410 L 3376,1409 L 3379,1406 L 3387,1396 L 3388,1396 L 3421,1353 L 3423,1351 L 3426,1346 L 3428,1344 L 3429,1344 L 3437,1342 L 3445,1338 L 3446,1337 L 3451,1335 L 3451,1334 L 3458,1326 L 3458,1325 L 3459,1324 L 3471,1320 L 3480,1316 L 3481,1316 L 3485,1315 L 3487,1314 L 3506,1307 L 3528,1298 L 3529,1298 L 3560,1286 L 3562,1284 L 3583,1277 L 3586,1275 L 3587,1275 L 3598,1268 L 3600,1267 L 3600,1265 L 3598,1266 L 3609,1250 L 3609,1252 L 3613,1260 L 3614,1265 L 3618,1265 L 3618,1262 L 3635,1263 L 3655,1257 L 3658,1257 L 3669,1265 L 3670,1266 L 3671,1268 L 3677,1287 L 3702,1287 L 3711,1312 L 3711,1313 L 3713,1320 L 3714,1326 L 3715,1328 L 3715,1336 L 3713,1341 L 3713,1353 L 3714,1358 L 3715,1359 L 3715,1360 L 3716,1362 L 3717,1365 L 3718,1367 L 3718,1373 L 3717,1377 L 3717,1382 L 3718,1385 L 3719,1390 L 3720,1392 L 3720,1395 L 3721,1400 L 3722,1404 L 3721,1410 L 3722,1415 L 3723,1418 L 3724,1420 L 3726,1423 L 3733,1433 L 3735,1435 L 3736,1437 L 3737,1440 L 3737,1442 L 3738,1447 L 3742,1455 L 3742,1456 L 3743,1459 L 3743,1468 L 3744,1470 L 3744,1488 L 3743,1490 L 3743,1492 L 3742,1495 L 3741,1497 L 3739,1503 L 3738,1504 L 3738,1509 L 3736,1517 L 3735,1522 L 3735,1525 L 3741,1528 L 3744,1529 L 3752,1531 L 3778,1538 L 3781,1539 L 3788,1541 L 3818,1549 L 3830,1553 L 3850,1558 L 3852,1559 L 3899,1572 L 3962,1588 L 3964,1588 L 4051,1599 L 4054,1600 L 4056,1601 L 4063,1604 L 4067,1606 L 4070,1607 L 4079,1607 L 4082,1624 L 4066,1651 L 4066,1652 L 4064,1651 L 4063,1653 z"
       style="fill:#ffe6d5;stroke:#e00000;stroke-opacity:1;stroke-width:8;stroke-miterlimit:4;stroke-dasharray:none" />
    <path cartogramvalue="3"
       id="Lichtenberg"
       d="M 2952,2020 L 2952,2020 L 2953,2018 L 2954,2017 L 2956,2014 L 2957,2013 L 2959,2010 L 2963,2006 L 2963,2004 L 2965,2002 L 2967,2001 L 2965,1998 L 2970,1989 L 2971,1989 L 2972,1988 L 2971,1988 L 2981,1970 L 2983,1966 L 2984,1963 L 2985,1963 L 2987,1961 L 2984,1944 L 2985,1943 L 2984,1942 L 2984,1939 L 2982,1932 L 2981,1928 L 2982,1924 L 2984,1912 L 2995,1918 L 2997,1914 L 2992,1911 L 2991,1911 L 2988,1908 L 2988,1907 L 2986,1900 L 2985,1898 L 2985,1897 L 2982,1890 L 2979,1882 L 2978,1879 L 2976,1874 L 2973,1866 L 2973,1865 L 2970,1865 L 2965,1857 L 2966,1856 L 2962,1849 L 2960,1849 L 2960,1847 L 2959,1847 L 2954,1840 L 2951,1834 L 2949,1832 L 2947,1829 L 2945,1827 L 2944,1825 L 2938,1821 L 2935,1818 L 2932,1816 L 2928,1814 L 2925,1812 L 2913,1809 L 2898,1806 L 2890,1802 L 2885,1799 L 2882,1798 L 2876,1794 L 2872,1792 L 2864,1784 L 2852,1765 L 2851,1763 L 2853,1761 L 2855,1761 L 2865,1757 L 2877,1753 L 2881,1752 L 2883,1748 L 2883,1747 L 2884,1746 L 2886,1742 L 2892,1731 L 2899,1717 L 2900,1717 L 2900,1714 L 2907,1710 L 2907,1709 L 2908,1709 L 2908,1708 L 2919,1702 L 2922,1700 L 2924,1699 L 2925,1699 L 2925,1698 L 2926,1698 L 2926,1699 L 2936,1691 L 2937,1691 L 2932,1679 L 2930,1675 L 2924,1671 L 2920,1669 L 2923,1663 L 2924,1662 L 2929,1650 L 2928,1649 L 2928,1650 L 2926,1649 L 2944,1627 L 2941,1614 L 2940,1608 L 2939,1608 L 2937,1595 L 2929,1559 L 2928,1557 L 2925,1543 L 2926,1541 L 2927,1541 L 2928,1540 L 2935,1541 L 2939,1543 L 2942,1546 L 2950,1546 L 2955,1547 L 2977,1547 L 3000,1548 L 3007,1549 L 3010,1549 L 3016,1543 L 3014,1538 L 3011,1533 L 3011,1531 L 3009,1529 L 3011,1525 L 3014,1527 L 3015,1526 L 3016,1526 L 3016,1527 L 3026,1527 L 3026,1526 L 3027,1526 L 3028,1525 L 3029,1525 L 3038,1514 L 3038,1513 L 3039,1512 L 3052,1497 L 3054,1494 L 3060,1496 L 3082,1502 L 3083,1503 L 3085,1503 L 3108,1511 L 3111,1513 L 3117,1490 L 3118,1488 L 3118,1486 L 3119,1485 L 3119,1479 L 3120,1478 L 3120,1476 L 3119,1474 L 3119,1468 L 3118,1466 L 3118,1464 L 3117,1462 L 3117,1461 L 3116,1459 L 3116,1457 L 3115,1455 L 3114,1454 L 3111,1448 L 3105,1439 L 3098,1426 L 3096,1423 L 3094,1418 L 3092,1415 L 3091,1414 L 3090,1412 L 3087,1409 L 3085,1408 L 3082,1406 L 3080,1404 L 3068,1398 L 3056,1394 L 3053,1394 L 3050,1393 L 3048,1390 L 3049,1385 L 3051,1383 L 3053,1372 L 3053,1371 L 3055,1364 L 3053,1364 L 3038,1361 L 3038,1360 L 3041,1351 L 3041,1344 L 3042,1343 L 3038,1342 L 3039,1341 L 3055,1319 L 3065,1308 L 3053,1298 L 3040,1287 L 3033,1282 L 3034,1281 L 3033,1272 L 3032,1271 L 3032,1270 L 3031,1270 L 3029,1271 L 3026,1271 L 3024,1270 L 3014,1270 L 3012,1269 L 3010,1269 L 3010,1262 L 3012,1262 L 3013,1260 L 3011,1259 L 3011,1254 L 3012,1251 L 3012,1249 L 3013,1247 L 3014,1243 L 3014,1242 L 3012,1241 L 3012,1238 L 3013,1239 L 3013,1213 L 3017,1213 L 3017,1212 L 3016,1212 L 3015,1211 L 3014,1203 L 3015,1203 L 3014,1196 L 3012,1192 L 3012,1173 L 3013,1170 L 3014,1164 L 3014,1160 L 3016,1155 L 3017,1150 L 3017,1148 L 3025,1151 L 3027,1143 L 3038,1142 L 3039,1138 L 3043,1125 L 3045,1125 L 3049,1110 L 3051,1106 L 3051,1104 L 3053,1100 L 3054,1099 L 3055,1097 L 3056,1096 L 3060,1090 L 3066,1083 L 3068,1081 L 3069,1081 L 3070,1080 L 3071,1078 L 3072,1077 L 3074,1076 L 3078,1073 L 3140,1033 L 3141,1033 L 3183,1005 L 3184,1005 L 3185,1004 L 3185,1006 L 3186,1008 L 3193,1024 L 3205,1053 L 3268,1049 L 3304,1046 L 3334,1052 L 3337,1052 L 3357,1059 L 3359,1060 L 3380,1067 L 3384,1069 L 3385,1069 L 3392,1072 L 3393,1072 L 3409,1078 L 3410,1079 L 3431,1086 L 3432,1086 L 3469,1099 L 3468,1103 L 3484,1113 L 3489,1116 L 3499,1123 L 3507,1128 L 3525,1142 L 3533,1150 L 3552,1167 L 3555,1170 L 3560,1174 L 3563,1179 L 3565,1180 L 3570,1185 L 3572,1188 L 3578,1198 L 3587,1208 L 3591,1218 L 3600,1231 L 3603,1239 L 3605,1243 L 3605,1244 L 3609,1250 L 3598,1266 L 3600,1265 L 3600,1267 L 3598,1268 L 3587,1275 L 3586,1275 L 3583,1277 L 3562,1284 L 3560,1286 L 3529,1298 L 3528,1298 L 3506,1307 L 3487,1314 L 3485,1315 L 3481,1316 L 3480,1316 L 3471,1320 L 3459,1324 L 3458,1325 L 3458,1326 L 3451,1334 L 3451,1335 L 3446,1337 L 3445,1338 L 3437,1342 L 3429,1344 L 3428,1344 L 3426,1346 L 3423,1351 L 3421,1353 L 3388,1396 L 3387,1396 L 3379,1406 L 3376,1409 L 3376,1410 L 3371,1414 L 3369,1417 L 3361,1424 L 3360,1426 L 3340,1446 L 3334,1450 L 3329,1455 L 3324,1459 L 3322,1461 L 3322,1462 L 3321,1463 L 3323,1467 L 3327,1477 L 3331,1489 L 3331,1491 L 3333,1496 L 3333,1498 L 3334,1500 L 3334,1501 L 3335,1505 L 3336,1510 L 3336,1511 L 3337,1513 L 3338,1519 L 3338,1520 L 3344,1547 L 3344,1548 L 3345,1549 L 3347,1560 L 3350,1572 L 3350,1573 L 3352,1584 L 3353,1587 L 3355,1594 L 3356,1601 L 3356,1603 L 3364,1638 L 3368,1642 L 3364,1643 L 3363,1643 L 3364,1646 L 3362,1646 L 3362,1648 L 3359,1650 L 3353,1653 L 3349,1654 L 3344,1656 L 3340,1657 L 3332,1661 L 3329,1662 L 3326,1664 L 3311,1672 L 3307,1674 L 3304,1675 L 3300,1676 L 3298,1677 L 3296,1677 L 3292,1678 L 3291,1678 L 3289,1679 L 3287,1679 L 3281,1680 L 3279,1679 L 3276,1679 L 3272,1680 L 3267,1681 L 3264,1681 L 3262,1682 L 3263,1683 L 3273,1703 L 3274,1706 L 3275,1711 L 3275,1719 L 3276,1728 L 3276,1733 L 3277,1757 L 3277,1759 L 3278,1776 L 3279,1781 L 3279,1800 L 3280,1815 L 3280,1817 L 3279,1830 L 3279,1846 L 3278,1863 L 3277,1878 L 3277,1879 L 3276,1894 L 3276,1895 L 3275,1917 L 3274,1916 L 3274,1923 L 3284,1923 L 3284,1925 L 3287,1925 L 3287,1924 L 3300,1924 L 3304,1923 L 3309,1923 L 3315,1924 L 3316,1924 L 3325,1925 L 3353,1925 L 3353,1927 L 3370,1927 L 3374,1926 L 3377,1927 L 3382,1928 L 3385,1929 L 3387,1929 L 3389,1931 L 3395,1935 L 3400,1940 L 3402,1944 L 3403,1945 L 3404,1947 L 3404,1951 L 3405,1954 L 3405,1968 L 3402,1968 L 3394,1967 L 3394,1977 L 3395,1989 L 3393,1990 L 3394,2007 L 3392,2011 L 3387,2017 L 3396,2040 L 3403,2057 L 3411,2079 L 3416,2094 L 3416,2095 L 3417,2095 L 3426,2096 L 3431,2097 L 3433,2098 L 3434,2098 L 3442,2112 L 3447,2121 L 3446,2122 L 3445,2124 L 3446,2126 L 3449,2128 L 3452,2151 L 3452,2154 L 3454,2157 L 3462,2170 L 3474,2203 L 3486,2235 L 3488,2239 L 3489,2243 L 3488,2245 L 3486,2252 L 3481,2259 L 3475,2273 L 3473,2273 L 3473,2303 L 3477,2304 L 3485,2320 L 3493,2334 L 3496,2348 L 3501,2371 L 3505,2372 L 3498,2372 L 3490,2371 L 3481,2369 L 3474,2369 L 3474,2370 L 3476,2374 L 3476,2376 L 3475,2375 L 3466,2374 L 3464,2373 L 3439,2369 L 3435,2368 L 3434,2368 L 3424,2361 L 3423,2360 L 3418,2357 L 3416,2359 L 3416,2360 L 3412,2365 L 3409,2368 L 3395,2386 L 3390,2393 L 3379,2407 L 3367,2422 L 3360,2431 L 3359,2431 L 3358,2433 L 3356,2435 L 3338,2411 L 3333,2403 L 3322,2387 L 3308,2368 L 3300,2359 L 3294,2354 L 3291,2360 L 3288,2365 L 3287,2366 L 3287,2367 L 3285,2367 L 3284,2366 L 3265,2355 L 3262,2354 L 3254,2350 L 3253,2350 L 3250,2349 L 3246,2349 L 3244,2348 L 3240,2348 L 3237,2349 L 3235,2349 L 3232,2350 L 3226,2351 L 3225,2351 L 3201,2357 L 3200,2357 L 3200,2356 L 3189,2339 L 3177,2322 L 3176,2321 L 3169,2300 L 3168,2299 L 3162,2280 L 3160,2272 L 3157,2272 L 3155,2271 L 3146,2269 L 3144,2268 L 3139,2266 L 3137,2265 L 3136,2265 L 3135,2264 L 3125,2264 L 3108,2266 L 3106,2257 L 3104,2249 L 3099,2238 L 3099,2237 L 3098,2236 L 3098,2235 L 3097,2234 L 3087,2219 L 3086,2219 L 3086,2218 L 3085,2218 L 3090,2209 L 3072,2198 L 3069,2190 L 3053,2180 L 3051,2176 L 3046,2171 L 3040,2171 L 3040,2170 L 3037,2167 L 3026,2176 L 3023,2175 L 3016,2169 L 3013,2164 L 3014,2164 L 3009,2155 L 3008,2154 L 2988,2142 L 2987,2142 L 2985,2139 L 2982,2135 L 2980,2128 L 2981,2126 L 2984,2122 L 2983,2119 L 2982,2118 L 2978,2115 L 2976,2113 L 2972,2111 L 2965,2108 L 2959,2104 L 2953,2099 L 2953,2100 L 2943,2093 L 2941,2090 L 2939,2088 L 2938,2088 L 2938,2085 L 2940,2083 L 2934,2081 L 2935,2076 L 2936,2076 L 2937,2071 L 2941,2056 L 2942,2052 L 2942,2050 L 2943,2049 L 2943,2048 L 2947,2032 L 2952,2023 L 2953,2022 L 2952,2020 z"
       style="fill:#ffccaa;stroke:#e00000;stroke-opacity:1;stroke-width:8;stroke-miterlimit:4;stroke-dasharray:none" />
    <path cartogramvalue="3"
       id="Reinickendorf"
       d="M 2091,702 L 2091,702 L 2094,698 L 2112,700 L 2142,697 L 2144,709 L 2145,709 L 2145,708 L 2146,707 L 2146,706 L 2149,706 L 2150,707 L 2150,709 L 2151,709 L 2151,708 L 2152,708 L 2152,707 L 2151,706 L 2155,702 L 2156,702 L 2156,703 L 2157,703 L 2159,701 L 2161,701 L 2161,702 L 2164,702 L 2164,700 L 2169,700 L 2171,702 L 2172,702 L 2174,704 L 2176,704 L 2177,703 L 2178,704 L 2178,705 L 2181,705 L 2182,704 L 2183,705 L 2184,705 L 2186,707 L 2187,707 L 2187,705 L 2188,704 L 2188,703 L 2189,703 L 2190,704 L 2190,705 L 2191,705 L 2191,703 L 2192,702 L 2195,702 L 2195,703 L 2197,703 L 2197,700 L 2199,697 L 2200,696 L 2200,695 L 2202,695 L 2202,697 L 2206,697 L 2205,696 L 2205,695 L 2208,695 L 2208,693 L 2209,692 L 2215,692 L 2217,690 L 2217,689 L 2219,689 L 2219,687 L 2220,686 L 2223,686 L 2225,685 L 2226,685 L 2227,684 L 2227,683 L 2228,684 L 2227,685 L 2229,685 L 2230,686 L 2229,687 L 2229,688 L 2230,688 L 2230,687 L 2231,686 L 2233,686 L 2234,687 L 2235,687 L 2235,685 L 2234,683 L 2233,682 L 2237,682 L 2237,680 L 2238,680 L 2239,679 L 2241,681 L 2242,681 L 2242,679 L 2243,680 L 2244,680 L 2244,679 L 2246,681 L 2247,681 L 2249,682 L 2250,680 L 2251,681 L 2252,684 L 2256,695 L 2266,715 L 2268,718 L 2268,719 L 2279,741 L 2287,759 L 2290,768 L 2291,770 L 2291,772 L 2298,788 L 2299,789 L 2305,806 L 2308,814 L 2310,828 L 2312,844 L 2312,859 L 2311,877 L 2308,885 L 2309,885 L 2306,890 L 2302,899 L 2290,929 L 2288,933 L 2287,936 L 2277,961 L 2276,961 L 2276,963 L 2273,969 L 2271,971 L 2270,973 L 2268,976 L 2261,985 L 2257,991 L 2256,992 L 2255,992 L 2254,994 L 2239,1013 L 2230,1026 L 2230,1027 L 2220,1040 L 2205,1060 L 2201,1061 L 2195,1062 L 2189,1062 L 2172,1064 L 2158,1064 L 2145,1065 L 2142,1065 L 2134,1067 L 2124,1070 L 2116,1073 L 2123,1079 L 2127,1083 L 2133,1083 L 2131,1086 L 2142,1096 L 2148,1100 L 2147,1101 L 2158,1110 L 2186,1136 L 2188,1137 L 2189,1137 L 2193,1139 L 2196,1142 L 2196,1143 L 2206,1153 L 2212,1158 L 2221,1167 L 2224,1169 L 2227,1172 L 2228,1169 L 2230,1171 L 2231,1173 L 2233,1176 L 2234,1176 L 2237,1178 L 2240,1181 L 2243,1185 L 2250,1191 L 2250,1192 L 2256,1196 L 2255,1197 L 2267,1208 L 2276,1216 L 2283,1221 L 2284,1220 L 2294,1227 L 2299,1231 L 2302,1234 L 2306,1237 L 2311,1242 L 2311,1243 L 2312,1244 L 2316,1249 L 2323,1257 L 2324,1256 L 2325,1256 L 2326,1259 L 2328,1258 L 2329,1263 L 2330,1262 L 2331,1265 L 2332,1267 L 2333,1266 L 2333,1269 L 2335,1269 L 2337,1270 L 2342,1272 L 2350,1274 L 2353,1274 L 2356,1271 L 2391,1303 L 2388,1307 L 2398,1317 L 2394,1321 L 2393,1323 L 2389,1327 L 2367,1322 L 2364,1323 L 2344,1336 L 2343,1337 L 2326,1340 L 2325,1342 L 2323,1355 L 2323,1357 L 2321,1367 L 2321,1369 L 2316,1398 L 2316,1401 L 2314,1401 L 2276,1402 L 2273,1402 L 2267,1409 L 2264,1411 L 2261,1414 L 2244,1428 L 2237,1429 L 2234,1429 L 2232,1415 L 2230,1395 L 2202,1402 L 2200,1403 L 2200,1401 L 2199,1388 L 2198,1387 L 2180,1386 L 2175,1385 L 2170,1385 L 2161,1386 L 2126,1386 L 2123,1385 L 2123,1384 L 2111,1380 L 2085,1372 L 2082,1370 L 2061,1363 L 2060,1363 L 2044,1358 L 2011,1386 L 2008,1388 L 2002,1383 L 1974,1380 L 1972,1389 L 1970,1391 L 1969,1393 L 1968,1394 L 1966,1395 L 1965,1396 L 1963,1397 L 1962,1398 L 1960,1398 L 1959,1399 L 1957,1399 L 1956,1400 L 1940,1403 L 1938,1404 L 1918,1408 L 1912,1410 L 1886,1420 L 1872,1425 L 1859,1431 L 1858,1432 L 1841,1461 L 1828,1483 L 1827,1485 L 1816,1504 L 1812,1513 L 1802,1530 L 1798,1530 L 1768,1529 L 1765,1529 L 1602,1524 L 1592,1523 L 1593,1524 L 1590,1524 L 1579,1523 L 1553,1523 L 1534,1522 L 1524,1522 L 1512,1521 L 1496,1519 L 1489,1517 L 1474,1511 L 1469,1508 L 1465,1506 L 1461,1503 L 1457,1501 L 1449,1494 L 1448,1493 L 1446,1492 L 1393,1448 L 1393,1449 L 1391,1448 L 1381,1439 L 1380,1438 L 1378,1437 L 1378,1434 L 1374,1432 L 1373,1432 L 1338,1403 L 1331,1396 L 1326,1390 L 1324,1387 L 1323,1388 L 1307,1369 L 1305,1366 L 1304,1363 L 1304,1357 L 1308,1347 L 1309,1343 L 1309,1334 L 1308,1331 L 1307,1329 L 1304,1325 L 1302,1322 L 1301,1321 L 1299,1317 L 1297,1299 L 1287,1279 L 1286,1275 L 1287,1262 L 1286,1259 L 1282,1252 L 1277,1246 L 1258,1231 L 1250,1221 L 1241,1207 L 1238,1197 L 1239,1169 L 1231,1147 L 1222,1132 L 1223,1124 L 1228,1118 L 1234,1097 L 1246,1057 L 1246,1054 L 1243,1044 L 1237,1033 L 1218,1014 L 1194,994 L 1174,971 L 1168,963 L 1166,959 L 1160,948 L 1156,941 L 1154,938 L 1149,931 L 1135,914 L 1133,911 L 1130,903 L 1128,895 L 1128,885 L 1130,879 L 1131,878 L 1133,875 L 1136,874 L 1145,870 L 1151,867 L 1158,862 L 1164,856 L 1172,839 L 1184,817 L 1195,796 L 1205,774 L 1219,744 L 1232,734 L 1243,707 L 1252,687 L 1254,679 L 1255,671 L 1256,659 L 1257,656 L 1259,649 L 1258,646 L 1258,643 L 1275,645 L 1283,642 L 1286,643 L 1290,645 L 1289,642 L 1293,644 L 1295,644 L 1294,647 L 1294,649 L 1298,649 L 1303,651 L 1309,652 L 1324,654 L 1341,653 L 1360,650 L 1381,650 L 1392,649 L 1397,646 L 1401,645 L 1404,644 L 1406,644 L 1412,646 L 1420,649 L 1424,652 L 1431,656 L 1442,655 L 1444,656 L 1452,654 L 1461,655 L 1469,656 L 1474,656 L 1479,655 L 1486,654 L 1496,653 L 1503,653 L 1505,652 L 1515,651 L 1527,651 L 1537,654 L 1541,656 L 1548,657 L 1554,661 L 1554,655 L 1555,644 L 1555,643 L 1556,634 L 1556,633 L 1557,621 L 1557,620 L 1558,609 L 1559,600 L 1559,597 L 1561,576 L 1558,562 L 1557,558 L 1556,556 L 1552,545 L 1551,544 L 1545,533 L 1545,531 L 1544,529 L 1543,528 L 1543,526 L 1542,524 L 1542,523 L 1541,515 L 1542,515 L 1541,507 L 1570,514 L 1591,519 L 1600,518 L 1606,517 L 1622,512 L 1638,513 L 1640,512 L 1640,513 L 1643,512 L 1666,506 L 1678,504 L 1684,504 L 1687,503 L 1687,497 L 1690,467 L 1690,461 L 1691,453 L 1692,442 L 1692,427 L 1690,422 L 1692,423 L 1693,423 L 1696,393 L 1697,375 L 1675,374 L 1677,350 L 1677,348 L 1681,285 L 1689,287 L 1699,289 L 1702,290 L 1707,292 L 1711,294 L 1712,293 L 1714,293 L 1715,295 L 1718,293 L 1724,294 L 1731,295 L 1751,299 L 1754,301 L 1802,301 L 1808,302 L 1818,302 L 1829,300 L 1846,298 L 1847,301 L 1850,305 L 1855,311 L 1857,313 L 1856,316 L 1857,317 L 1859,318 L 1860,320 L 1863,323 L 1865,322 L 1865,323 L 1853,331 L 1833,344 L 1832,345 L 1800,366 L 1836,438 L 1842,451 L 1844,454 L 1854,474 L 1859,472 L 1859,473 L 1860,485 L 1860,486 L 1858,486 L 1859,494 L 1857,494 L 1857,500 L 1855,503 L 1854,504 L 1852,508 L 1852,514 L 1851,514 L 1850,515 L 1846,515 L 1846,520 L 1839,520 L 1843,531 L 1843,537 L 1844,541 L 1844,543 L 1837,545 L 1835,546 L 1837,550 L 1838,555 L 1847,573 L 1848,574 L 1853,583 L 1854,588 L 1857,592 L 1861,600 L 1862,603 L 1862,605 L 1864,615 L 1865,621 L 1862,621 L 1862,626 L 1866,628 L 1862,634 L 1856,637 L 1840,642 L 1838,642 L 1836,643 L 1829,648 L 1824,649 L 1817,652 L 1813,655 L 1814,659 L 1834,654 L 1844,653 L 1846,652 L 1854,650 L 1859,650 L 1871,649 L 1873,648 L 1885,648 L 1892,651 L 1898,654 L 1909,658 L 1913,659 L 1924,664 L 1925,664 L 1929,665 L 1946,667 L 1955,668 L 1956,668 L 1964,671 L 1969,673 L 1978,676 L 1981,676 L 1990,679 L 1996,682 L 2007,689 L 2013,693 L 2016,694 L 2018,693 L 2044,710 L 2047,709 L 2049,708 L 2052,707 L 2056,707 L 2057,703 L 2058,703 L 2062,705 L 2064,703 L 2066,704 L 2068,704 L 2070,705 L 2075,703 L 2076,704 L 2077,703 L 2079,704 L 2080,703 L 2082,704 L 2083,703 L 2086,701 L 2088,703 L 2089,701 L 2091,702 z"
       style="fill:#ffe6d5;stroke:#e00000;stroke-opacity:1;stroke-width:8;stroke-miterlimit:4;stroke-dasharray:none" />
  </g>
</svg>
